STARTFONT 2.1
FONT -FontForge-Indie Flower-Book-R-Normal--32-320-72-72-P-148-ISO10646-1
SIZE 32 72 72
FONTBOUNDINGBOX 39 47 -4 -16
COMMENT "Generated by fontforge, http://fontforge.sourceforge.net"
COMMENT "Copyright (c) 2010, Kimberly Geswein (kimberlygeswein.com)"
STARTPROPERTIES 39
FOUNDRY "FontForge"
FAMILY_NAME "Indie Flower"
WEIGHT_NAME "Book"
SLANT "R"
SETWIDTH_NAME "Normal"
ADD_STYLE_NAME ""
PIXEL_SIZE 32
POINT_SIZE 320
RESOLUTION_X 72
RESOLUTION_Y 72
SPACING "P"
AVERAGE_WIDTH 148
CHARSET_REGISTRY "ISO10646"
CHARSET_ENCODING "1"
FONTNAME_REGISTRY ""
CHARSET_COLLECTIONS "ISO8859-2 ISO8859-9 ISO8859-4 ISO10646-1"
FONT_NAME "IndieFlower"
FACE_NAME "Indie Flower"
COPYRIGHT "Copyright (c) 2010, Kimberly Geswein (kimberlygeswein.com)"
FONT_VERSION "1.001 2010"
FONT_ASCENT 26
FONT_DESCENT 6
UNDERLINE_POSITION -3
UNDERLINE_THICKNESS 2
X_HEIGHT 11
CAP_HEIGHT 16
RAW_ASCENT 799
RAW_DESCENT 200
NORM_SPACE 12
RELATIVE_WEIGHT 40
RELATIVE_SETWIDTH 50
SUPERSCRIPT_X 0
SUPERSCRIPT_Y 15
SUPERSCRIPT_SIZE 20
SUBSCRIPT_X 0
SUBSCRIPT_Y 4
SUBSCRIPT_SIZE 20
AVG_LOWERCASE_WIDTH 145
AVG_UPPERCASE_WIDTH 173
ENDPROPERTIES
CHARS 356
STARTCHAR space
ENCODING 32
SWIDTH 375 0
DWIDTH 12 0
BBX 1 1 0 0
BITMAP
00
ENDCHAR
STARTCHAR exclam
ENCODING 33
SWIDTH 149 0
DWIDTH 5 0
BBX 4 26 0 0
BITMAP
60
60
60
60
60
60
60
60
60
60
60
60
60
60
60
60
60
20
00
00
00
00
00
70
F0
70
ENDCHAR
STARTCHAR quotedbl
ENCODING 34
SWIDTH 234 0
DWIDTH 8 0
BBX 7 10 0 16
BITMAP
08
84
C4
C4
44
64
66
66
66
36
ENDCHAR
STARTCHAR numbersign
ENCODING 35
SWIDTH 768 0
DWIDTH 25 0
BBX 24 16 0 0
BITMAP
002200
002200
002200
002300
0023FC
007FFE
0FFF80
7E3180
F031FE
003FFF
03FF80
1FB180
001180
001180
000180
000100
ENDCHAR
STARTCHAR dollar
ENCODING 36
SWIDTH 581 0
DWIDTH 19 0
BBX 18 30 0 0
BITMAP
002000
002400
006400
006400
006400
007C00
01FE00
03EF00
06CC00
064C00
064800
03C800
01C800
00D800
00FC00
00DE00
00DB00
00D180
00B080
00B0C0
C0B0C0
60B0C0
31B0C0
1DB0C0
07B180
03F380
01FF00
01B800
01A000
012000
ENDCHAR
STARTCHAR percent
ENCODING 37
SWIDTH 636 0
DWIDTH 20 0
BBX 20 20 0 0
BITMAP
000080
000080
000100
3E0300
770600
630C00
C10800
C11000
633000
7E2000
186180
00C3C0
00C660
018C20
038C30
030820
071860
0618C0
040F80
040700
ENDCHAR
STARTCHAR ampersand
ENCODING 38
SWIDTH 457 0
DWIDTH 15 0
BBX 14 22 0 0
BITMAP
0700
0700
0700
0700
0700
0700
0700
0600
0600
0C3C
0C3C
0E20
1E60
3260
33C0
61C0
61C0
41C0
C340
C620
7C10
3810
ENDCHAR
STARTCHAR quotesingle
ENCODING 39
SWIDTH 102 0
DWIDTH 3 0
BBX 2 7 1 16
BITMAP
80
80
80
C0
C0
C0
C0
ENDCHAR
STARTCHAR parenleft
ENCODING 40
SWIDTH 421 0
DWIDTH 14 0
BBX 12 20 1 -1
BITMAP
0060
01F0
0390
0600
0C00
1800
3000
2000
6000
C000
C000
C000
8000
8000
8000
C000
C000
6000
3E00
1F00
ENDCHAR
STARTCHAR parenright
ENCODING 41
SWIDTH 290 0
DWIDTH 9 0
BBX 9 21 0 -2
BITMAP
7000
3C00
0C00
0600
0700
0300
0300
0180
0180
0180
0180
0100
0300
0200
0600
0C00
1C00
3800
7000
F000
4000
ENDCHAR
STARTCHAR asterisk
ENCODING 42
SWIDTH 412 0
DWIDTH 13 0
BBX 11 13 1 7
BITMAP
0020
0060
EDC0
7F80
3FC0
1FC0
FF80
3F80
3380
63C0
43C0
0300
0200
ENDCHAR
STARTCHAR plus
ENCODING 43
SWIDTH 459 0
DWIDTH 15 0
BBX 14 14 0 0
BITMAP
0400
0600
0600
0600
0300
0300
0FFC
FFFC
4300
0300
0300
0100
0100
0100
ENDCHAR
STARTCHAR comma
ENCODING 44
SWIDTH 130 0
DWIDTH 4 0
BBX 3 11 0 -6
BITMAP
40
60
60
60
60
60
60
60
C0
C0
C0
ENDCHAR
STARTCHAR hyphen
ENCODING 45
SWIDTH 375 0
DWIDTH 12 0
BBX 11 2 0 8
BITMAP
3FE0
FFE0
ENDCHAR
STARTCHAR period
ENCODING 46
SWIDTH 204 0
DWIDTH 7 0
BBX 5 6 1 0
BITMAP
30
70
78
F8
70
60
ENDCHAR
STARTCHAR slash
ENCODING 47
SWIDTH 309 0
DWIDTH 10 0
BBX 9 24 0 0
BITMAP
0080
0080
0180
0180
0180
0100
0300
0300
0300
0600
0600
0600
0C00
0C00
1C00
1800
1800
3000
3000
7000
6000
6000
C000
C000
ENDCHAR
STARTCHAR zero
ENCODING 48
SWIDTH 430 0
DWIDTH 14 0
BBX 12 14 1 0
BITMAP
0F00
1F80
31C0
6060
C060
8030
8030
8030
8030
C030
C060
60E0
3FC0
0F00
ENDCHAR
STARTCHAR one
ENCODING 49
SWIDTH 318 0
DWIDTH 10 0
BBX 9 19 0 0
BITMAP
0080
0080
0080
0180
0180
0380
0780
0F80
1F80
3B80
7300
6300
C300
0300
0300
0300
0200
0200
0200
ENDCHAR
STARTCHAR two
ENCODING 50
SWIDTH 497 0
DWIDTH 16 0
BBX 15 17 0 0
BITMAP
01F0
0198
0118
010C
000C
000C
000C
000C
000C
0018
0018
0010
7030
FE60
7FE0
7FFE
001E
ENDCHAR
STARTCHAR three
ENCODING 51
SWIDTH 430 0
DWIDTH 14 0
BBX 12 17 1 0
BITMAP
7F00
FF80
40C0
00C0
00C0
0380
3E00
7E00
0F80
01C0
0060
0030
C030
E030
7030
1FE0
0FC0
ENDCHAR
STARTCHAR four
ENCODING 52
SWIDTH 412 0
DWIDTH 13 0
BBX 12 19 1 0
BITMAP
6000
6000
C000
C000
C000
8030
8030
8060
80E0
C0E0
C1E0
77E0
7F60
3C60
0060
0060
0060
0060
0060
ENDCHAR
STARTCHAR five
ENCODING 53
SWIDTH 571 0
DWIDTH 18 0
BBX 16 21 1 0
BITMAP
03FF
07FF
0200
0600
0400
0C00
0C00
1E00
1FC0
01F0
0038
000C
000C
0004
8006
8006
800E
800C
F03C
7FF8
0FE0
ENDCHAR
STARTCHAR six
ENCODING 54
SWIDTH 440 0
DWIDTH 14 0
BBX 12 19 1 0
BITMAP
01F0
03F0
0E10
1C00
1800
3000
6000
6000
DF00
FFC0
E060
8030
8030
8030
C030
C030
70E0
7FC0
1F00
ENDCHAR
STARTCHAR seven
ENCODING 55
SWIDTH 412 0
DWIDTH 13 0
BBX 12 17 1 0
BITMAP
FF80
7F80
0180
0180
0180
0100
0100
0300
7FE0
1F70
0300
0300
0200
0600
0600
0600
0400
ENDCHAR
STARTCHAR eight
ENCODING 56
SWIDTH 375 0
DWIDTH 12 0
BBX 11 18 0 0
BITMAP
1F00
3F80
6180
6180
C180
6300
3600
1E00
1E00
1B00
3180
60C0
6060
6060
3020
3860
1EE0
07C0
ENDCHAR
STARTCHAR nine
ENCODING 57
SWIDTH 300 0
DWIDTH 10 0
BBX 9 19 0 0
BITMAP
1E00
3F00
6180
4180
C180
C180
C380
6380
3F80
0F80
0180
0100
0100
0100
0100
0100
0100
0100
0180
ENDCHAR
STARTCHAR colon
ENCODING 58
SWIDTH 84 0
DWIDTH 3 0
BBX 1 9 1 2
BITMAP
80
80
80
00
00
00
00
80
80
ENDCHAR
STARTCHAR semicolon
ENCODING 59
SWIDTH 128 0
DWIDTH 4 0
BBX 4 18 -1 -6
BITMAP
30
30
00
00
00
00
00
20
10
10
10
30
30
30
70
60
60
C0
ENDCHAR
STARTCHAR less
ENCODING 60
SWIDTH 487 0
DWIDTH 16 0
BBX 15 13 0 0
BITMAP
000E
001C
0070
00E0
0380
0700
1C00
3800
7000
FC00
7FE0
07F8
001C
ENDCHAR
STARTCHAR equal
ENCODING 61
SWIDTH 524 0
DWIDTH 17 0
BBX 15 8 1 4
BITMAP
FFFE
FF06
0000
0000
0000
0000
FFFC
FFF8
ENDCHAR
STARTCHAR greater
ENCODING 62
SWIDTH 403 0
DWIDTH 13 0
BBX 12 15 1 0
BITMAP
C000
E000
7800
1F00
07F0
0070
0070
00E0
01C0
0300
0E00
1C00
7000
E000
C000
ENDCHAR
STARTCHAR question
ENCODING 63
SWIDTH 272 0
DWIDTH 9 0
BBX 8 28 0 0
BITMAP
30
7C
C6
03
03
03
03
03
03
06
06
0C
1C
18
18
30
3E
1F
00
00
00
00
00
00
00
00
03
03
ENDCHAR
STARTCHAR at
ENCODING 64
SWIDTH 815 0
DWIDTH 26 0
BBX 24 29 1 0
BITMAP
001000
01FF00
0787C0
0E00E0
180030
30001C
60000E
400006
C00003
801F03
8073C1
80C0E1
818061
8101C1
830183
830183
820183
C20186
4303CE
6307FC
61DE38
30F800
180000
1C0000
0E0000
070000
01C01E
00F9FC
003FE0
ENDCHAR
STARTCHAR A
ENCODING 65
SWIDTH 562 0
DWIDTH 18 0
BBX 16 24 1 0
BITMAP
0FC0
1870
3030
2018
2008
600C
4004
4006
4006
4006
4002
4002
4003
FF07
FFFF
C003
4003
4003
4003
6003
6003
6003
6003
2002
ENDCHAR
STARTCHAR B
ENCODING 66
SWIDTH 741 0
DWIDTH 24 0
BBX 22 22 1 0
BITMAP
0FF000
FFFC00
CE0600
060300
060300
020300
030600
031C00
037C00
013E00
018F80
0183C0
018060
018030
018018
01800C
00800C
00C00C
01800C
03C01C
00FFF8
003FE0
ENDCHAR
STARTCHAR C
ENCODING 67
SWIDTH 515 0
DWIDTH 17 0
BBX 15 21 1 0
BITMAP
00E0
03F0
0730
0C20
1820
3040
6000
4000
C000
8000
8000
8000
8000
8000
8000
C000
C000
6000
707E
3FF8
1F00
ENDCHAR
STARTCHAR D
ENCODING 68
SWIDTH 741 0
DWIDTH 24 0
BBX 22 20 1 0
BITMAP
3FC000
FFF800
80DE00
00C380
0041C0
004060
006030
006038
006018
00600C
00600C
00200C
00300C
00300C
003018
003038
003070
0100F0
01FFC0
00FF80
ENDCHAR
STARTCHAR E
ENCODING 69
SWIDTH 524 0
DWIDTH 17 0
BBX 14 20 1 0
BITMAP
FFF0
FFFC
C004
C000
C000
C000
C000
C038
DFF0
FF00
C000
8000
8000
8000
8000
8000
8000
C03C
FFFC
7FF0
ENDCHAR
STARTCHAR F
ENCODING 70
SWIDTH 514 0
DWIDTH 16 0
BBX 21 19 -1 0
BITMAP
1FFF80
FFFFE0
0700F0
060008
060000
060000
060000
020000
030000
0FFE00
3FFC00
030000
030000
010000
010000
018000
018000
018000
018000
ENDCHAR
STARTCHAR G
ENCODING 71
SWIDTH 571 0
DWIDTH 18 0
BBX 17 19 1 -2
BITMAP
001C00
00FE00
03C300
060000
1C0000
300000
300000
610000
C1FE00
C0FF00
C00300
C00300
C00300
400700
701F00
3FFF00
0F0300
000300
000380
ENDCHAR
STARTCHAR H
ENCODING 72
SWIDTH 524 0
DWIDTH 17 0
BBX 16 22 0 0
BITMAP
0002
4006
4006
6006
6006
6006
6006
6006
2006
201E
207E
31E6
3786
3E06
7806
B006
3006
1006
1002
1003
1003
1003
ENDCHAR
STARTCHAR I
ENCODING 73
SWIDTH 167 0
DWIDTH 5 0
BBX 5 18 0 0
BITMAP
80
40
40
60
60
60
20
30
30
30
30
30
10
10
18
18
18
18
ENDCHAR
STARTCHAR J
ENCODING 74
SWIDTH 439 0
DWIDTH 14 0
BBX 13 23 1 0
BITMAP
0040
0040
0060
0060
0060
0020
0030
0030
0030
0030
0030
0030
8010
8010
C018
C010
6010
3010
1810
0C30
0630
03E0
01E0
ENDCHAR
STARTCHAR K
ENCODING 75
SWIDTH 468 0
DWIDTH 15 0
BBX 13 19 1 0
BITMAP
8040
8180
8380
8700
8E00
CC00
D800
F000
E000
6000
6000
F000
DC00
4E00
4700
41C0
60E0
6038
6018
ENDCHAR
STARTCHAR L
ENCODING 76
SWIDTH 346 0
DWIDTH 11 0
BBX 10 17 1 0
BITMAP
4000
4000
C000
C000
C000
C000
C000
C000
C000
8000
8000
8000
8000
C000
E000
7FC0
3F80
ENDCHAR
STARTCHAR M
ENCODING 77
SWIDTH 534 0
DWIDTH 17 0
BBX 15 20 1 0
BITMAP
8008
C00C
E00C
601C
701C
783C
7EFC
6FFC
630C
600C
600C
600C
600C
600C
6006
6006
6006
6006
6006
0006
ENDCHAR
STARTCHAR N
ENCODING 78
SWIDTH 609 0
DWIDTH 20 0
BBX 18 17 1 0
BITMAP
C00000
C00400
C00600
600700
600700
E00300
F00180
F00180
F80080
D800C0
CC00C0
CC00C0
C60180
C30180
C1E700
C0FE00
C03800
ENDCHAR
STARTCHAR O
ENCODING 79
SWIDTH 609 0
DWIDTH 20 0
BBX 18 16 1 0
BITMAP
040000
3FC000
73F000
603800
C00E00
800600
800300
800180
800180
C00080
C000C0
600080
700180
3C0700
1FFE00
07F000
ENDCHAR
STARTCHAR P
ENCODING 80
SWIDTH 627 0
DWIDTH 20 0
BBX 19 19 1 0
BITMAP
7FE000
FFFC00
801F00
800380
0101C0
0100C0
010040
010060
0100C0
0181C0
018780
01FE00
01F800
018000
018000
008000
00C000
00C000
008000
ENDCHAR
STARTCHAR Q
ENCODING 81
SWIDTH 642 0
DWIDTH 21 0
BBX 20 21 1 -4
BITMAP
0FC000
1FF000
307800
603C00
C03600
C03300
C02180
C000C0
C000C0
C00060
C04060
C06060
6030C0
3039C0
3C3F80
0FFE00
03FF00
000100
0000C0
000070
000020
ENDCHAR
STARTCHAR R
ENCODING 82
SWIDTH 579 0
DWIDTH 19 0
BBX 18 21 0 -1
BITMAP
1FE000
7FFC00
C00E00
800300
880180
080180
080380
0C0F00
0CFE00
0FF000
0F0000
0E0000
070000
058000
04C000
066000
063000
021800
020E00
020700
0001C0
ENDCHAR
STARTCHAR S
ENCODING 83
SWIDTH 627 0
DWIDTH 20 0
BBX 18 19 1 0
BITMAP
03FC00
0F0F00
180300
180000
180000
0C0000
0E0000
078000
01E000
007800
001E00
800700
800180
C000C0
C000C0
6000C0
3000C0
1FFF80
03FE00
ENDCHAR
STARTCHAR T
ENCODING 84
SWIDTH 581 0
DWIDTH 19 0
BBX 21 19 0 0
BITMAP
FFFFC0
03FFF8
003038
003000
003000
003000
003000
003000
003000
003000
001000
001800
001800
001800
001800
001800
001C00
000C00
000C00
ENDCHAR
STARTCHAR U
ENCODING 85
SWIDTH 571 0
DWIDTH 18 0
BBX 17 17 1 0
BITMAP
600800
C00C00
800C00
800C00
800C00
800C00
800C00
C00400
C00600
C00600
400600
600700
600F00
301F00
387380
1FC180
0F8000
ENDCHAR
STARTCHAR V
ENCODING 86
SWIDTH 421 0
DWIDTH 14 0
BBX 12 17 1 0
BITMAP
8020
C030
C030
E030
6060
6060
3060
3060
3860
18C0
1CC0
0CC0
0EC0
0780
0780
0300
0300
ENDCHAR
STARTCHAR W
ENCODING 87
SWIDTH 703 0
DWIDTH 23 0
BBX 22 16 0 0
BITMAP
400000
C00030
C00030
C00030
C00038
C00018
C04018
40600C
60600C
60600C
60700C
60F00C
31D818
3B8C38
1F07F0
0C03C0
ENDCHAR
STARTCHAR X
ENCODING 88
SWIDTH 534 0
DWIDTH 17 0
BBX 16 19 1 -2
BITMAP
2000
2003
300E
181C
1830
0C60
07C0
0780
0700
0F00
0F80
1980
30C0
6060
6030
C030
C018
8000
8000
ENDCHAR
STARTCHAR Y
ENCODING 89
SWIDTH 403 0
DWIDTH 13 0
BBX 11 22 1 -1
BITMAP
8000
8000
8020
C020
E060
7060
38E0
1EC0
07C0
03C0
0180
0180
0300
0300
0300
0200
0600
0600
0600
0600
0600
0400
ENDCHAR
STARTCHAR Z
ENCODING 90
SWIDTH 571 0
DWIDTH 18 0
BBX 17 20 1 0
BITMAP
7E0000
FFC000
C0E000
002000
003000
003000
003000
003000
006000
00FE00
1FFF00
3FE000
018000
018000
030000
060000
060000
0C0F80
0FFF00
07F800
ENDCHAR
STARTCHAR bracketleft
ENCODING 91
SWIDTH 477 0
DWIDTH 15 0
BBX 16 26 1 -3
BITMAP
0008
01FC
0FC0
7C00
E000
C000
C000
C000
6000
6000
6000
6000
2000
3000
3000
3000
3000
1000
1000
1000
1000
1800
1800
18FF
1FFF
1800
ENDCHAR
STARTCHAR backslash
ENCODING 92
SWIDTH 430 0
DWIDTH 14 0
BBX 13 17 0 0
BITMAP
C000
6000
7000
3800
1800
0C00
0E00
0700
0380
01C0
01C0
00E0
0070
0030
0018
0018
0018
ENDCHAR
STARTCHAR bracketright
ENCODING 93
SWIDTH 430 0
DWIDTH 14 0
BBX 13 30 0 -3
BITMAP
2000
FF80
0FE0
0060
0070
0030
0030
0030
0030
0010
0010
0010
0010
0010
0010
0010
0018
0018
0018
0018
0018
0018
0018
0018
0018
0018
0018
0018
3FF8
3FF8
ENDCHAR
STARTCHAR asciicircum
ENCODING 94
SWIDTH 375 0
DWIDTH 12 0
BBX 8 6 2 17
BITMAP
18
1C
3E
7F
E7
C3
ENDCHAR
STARTCHAR underscore
ENCODING 95
SWIDTH 656 0
DWIDTH 21 0
BBX 19 3 1 0
BITMAP
FFC000
1FFFE0
003FE0
ENDCHAR
STARTCHAR grave
ENCODING 96
SWIDTH 172 0
DWIDTH 6 0
BBX 4 4 1 14
BITMAP
80
C0
70
30
ENDCHAR
STARTCHAR a
ENCODING 97
SWIDTH 505 0
DWIDTH 16 0
BBX 14 16 1 0
BITMAP
0F00
0FC0
10E0
0060
0030
0018
1F98
3FF8
E03C
C01C
800C
8004
C004
F03C
3FFC
0FE0
ENDCHAR
STARTCHAR b
ENCODING 98
SWIDTH 497 0
DWIDTH 16 0
BBX 15 20 0 0
BITMAP
C000
C000
C000
6000
6000
6000
6000
6000
6000
2F80
3FE0
3878
301C
3006
3006
3002
1806
1C0E
0FFC
07F0
ENDCHAR
STARTCHAR c
ENCODING 99
SWIDTH 449 0
DWIDTH 14 0
BBX 13 14 1 0
BITMAP
0F80
3FC0
6040
6040
C040
C000
8000
8000
C000
C000
E000
7000
3FF8
0FF0
ENDCHAR
STARTCHAR d
ENCODING 100
SWIDTH 524 0
DWIDTH 17 0
BBX 15 23 1 0
BITMAP
0020
0070
0030
0030
0038
0038
0018
0018
001C
1E1C
3F9C
79FC
E07C
C03C
C01C
C01C
C01C
C03C
C07E
C0E6
61C6
3F86
1E00
ENDCHAR
STARTCHAR e
ENCODING 101
SWIDTH 515 0
DWIDTH 17 0
BBX 15 17 1 0
BITMAP
0200
1F80
30C0
6060
C060
C060
8060
81C0
A780
BE00
C000
C000
C000
6000
3C00
1FFE
07F0
ENDCHAR
STARTCHAR f
ENCODING 102
SWIDTH 376 0
DWIDTH 12 0
BBX 15 23 0 0
BITMAP
0080
03F0
0738
0C1C
080C
0802
1800
1800
1800
1800
1800
1800
1800
FFE0
CFE0
0C00
0600
0600
0700
0300
0380
01C0
00C0
ENDCHAR
STARTCHAR g
ENCODING 103
SWIDTH 366 0
DWIDTH 12 0
BBX 16 29 -4 -16
BITMAP
0078
00FC
018C
0304
0606
0606
0406
0406
060E
060E
07FE
03F6
0006
0006
0006
0002
0002
0003
0003
0003
8003
C003
C002
C006
7006
3C0E
1FDC
03F8
0020
ENDCHAR
STARTCHAR h
ENCODING 104
SWIDTH 427 0
DWIDTH 14 0
BBX 13 23 0 0
BITMAP
8000
8000
C000
C000
C000
C000
6000
6000
6000
7F80
7FC0
3060
2020
2030
2030
3010
3010
3010
3038
3038
3030
3030
1030
ENDCHAR
STARTCHAR i
ENCODING 105
SWIDTH 174 0
DWIDTH 6 0
BBX 5 19 0 0
BITMAP
C0
40
00
00
00
30
20
30
30
30
30
30
30
38
38
18
18
18
18
ENDCHAR
STARTCHAR j
ENCODING 106
SWIDTH 200 0
DWIDTH 6 0
BBX 11 33 -4 -14
BITMAP
0400
0600
0200
0000
0000
0000
0100
0100
0100
0180
0180
0180
0180
01C0
00C0
00C0
00C0
00C0
00E0
0060
0060
0060
8060
C060
4060
6060
6060
3060
3860
1860
0E60
07E0
03C0
ENDCHAR
STARTCHAR k
ENCODING 107
SWIDTH 403 0
DWIDTH 13 0
BBX 13 20 0 0
BITMAP
8000
8000
C000
C000
C000
4000
60C0
6180
6300
6200
2C00
3C00
3800
3000
3800
3800
3E00
37C0
21F8
2070
ENDCHAR
STARTCHAR l
ENCODING 108
SWIDTH 120 0
DWIDTH 4 0
BBX 2 18 1 0
BITMAP
80
C0
C0
C0
C0
C0
C0
C0
C0
C0
C0
C0
C0
C0
C0
C0
C0
C0
ENDCHAR
STARTCHAR m
ENCODING 109
SWIDTH 750 0
DWIDTH 24 0
BBX 22 14 1 0
BITMAP
000100
1C07E0
BF0FF0
F19C38
E0F818
C0F008
C0600C
C0600C
C0700C
C0300C
C0300C
C0300C
C0000C
000008
ENDCHAR
STARTCHAR n
ENCODING 110
SWIDTH 459 0
DWIDTH 15 0
BBX 13 14 1 0
BITMAP
0780
9FC0
F0E0
E060
C030
C030
C038
C018
C018
C018
6018
6018
6018
2018
ENDCHAR
STARTCHAR o
ENCODING 111
SWIDTH 487 0
DWIDTH 16 0
BBX 14 13 1 0
BITMAP
07C0
1FE0
7070
6018
C018
800C
800C
800C
C018
C038
60F0
3FE0
1F80
ENDCHAR
STARTCHAR p
ENCODING 112
SWIDTH 520 0
DWIDTH 17 0
BBX 15 22 1 -11
BITMAP
0FE0
3FF8
701C
E00C
C006
C006
C006
FC0E
EFFC
E7F8
E000
E000
6000
6000
7000
7000
7000
3000
3000
3000
1800
1800
ENDCHAR
STARTCHAR q
ENCODING 113
SWIDTH 412 0
DWIDTH 13 0
BBX 11 26 1 -10
BITMAP
0F80
1FC0
3060
6060
C060
C060
8060
80E0
80E0
80C0
80C0
C0C0
E0C0
7FC0
3FC0
00C0
00C0
00C0
0040
0040
0040
0060
0060
0060
0060
0060
ENDCHAR
STARTCHAR r
ENCODING 114
SWIDTH 346 0
DWIDTH 11 0
BBX 10 14 1 0
BITMAP
3F80
F3C0
C000
C000
C000
C000
C000
C000
C000
6000
6000
6000
3000
2000
ENDCHAR
STARTCHAR s
ENCODING 115
SWIDTH 514 0
DWIDTH 16 0
BBX 15 15 1 0
BITMAP
0E00
3F80
60C0
C040
C040
4080
7800
1FF0
0078
000C
000C
C00E
E00C
7FFC
1FF0
ENDCHAR
STARTCHAR t
ENCODING 116
SWIDTH 328 0
DWIDTH 11 0
BBX 10 20 0 0
BITMAP
0C00
0C00
0C00
0C00
0C00
0C00
0C00
FFC0
7FC0
0C00
0C00
0C00
0C00
0C00
0C00
0C00
0C00
0400
0400
0600
ENDCHAR
STARTCHAR u
ENCODING 117
SWIDTH 501 0
DWIDTH 16 0
BBX 16 15 0 0
BITMAP
4000
4000
C018
C018
401C
401C
601C
601C
601C
303C
303C
1866
0FC6
0786
0003
ENDCHAR
STARTCHAR v
ENCODING 118
SWIDTH 389 0
DWIDTH 12 0
BBX 12 12 0 0
BITMAP
C000
6030
6030
3060
3040
10C0
18C0
1980
0D80
0780
0700
0300
ENDCHAR
STARTCHAR w
ENCODING 119
SWIDTH 656 0
DWIDTH 21 0
BBX 20 14 0 0
BITMAP
400000
600000
600000
4000C0
C02060
C03020
C03030
C03030
603030
607030
207830
31DCF0
1F8FE0
0F0200
ENDCHAR
STARTCHAR x
ENCODING 120
SWIDTH 448 0
DWIDTH 14 0
BBX 14 14 0 -2
BITMAP
C01C
6038
7070
38C0
1F80
0F00
0700
0F80
19C0
30E0
2070
2038
0018
0008
ENDCHAR
STARTCHAR y
ENCODING 121
SWIDTH 487 0
DWIDTH 16 0
BBX 14 30 1 -16
BITMAP
8010
8018
8018
8018
8018
C018
C008
C00C
601C
601C
303C
1DEC
0F84
0004
0004
0004
0004
000C
000C
000C
000C
000C
000C
C008
6018
7018
3830
1EF0
07E0
0080
ENDCHAR
STARTCHAR z
ENCODING 122
SWIDTH 459 0
DWIDTH 15 0
BBX 13 17 1 0
BITMAP
0400
FF80
C180
80C0
00C0
00C0
0180
0180
3FE0
FF80
0E00
0C00
1800
3810
3878
3FF0
1F80
ENDCHAR
STARTCHAR braceleft
ENCODING 123
SWIDTH 393 0
DWIDTH 13 0
BBX 12 32 1 -3
BITMAP
0180
0FC0
3C60
7040
E000
C000
C000
8000
8000
8000
C000
6000
3800
1F00
0780
0F80
3D80
F0C0
C0C0
0180
0380
0700
0C00
1800
3000
6000
6000
6000
6000
3000
3FF0
1FC0
ENDCHAR
STARTCHAR bar
ENCODING 124
SWIDTH 149 0
DWIDTH 5 0
BBX 3 21 1 0
BITMAP
80
80
80
80
C0
C0
40
40
40
60
60
60
60
60
60
60
60
60
60
60
60
ENDCHAR
STARTCHAR braceright
ENCODING 125
SWIDTH 440 0
DWIDTH 14 0
BBX 13 37 0 -7
BITMAP
7F80
F3C0
6060
3030
0030
0030
0060
00C0
01C0
0300
0600
0C00
0800
0C00
0FE0
0FE0
0C00
0800
0C00
0600
0300
0180
00C0
0040
0060
0030
0030
0018
0018
0008
0008
0008
0018
C018
E030
78E0
3FC0
ENDCHAR
STARTCHAR asciitilde
ENCODING 126
SWIDTH 402 0
DWIDTH 13 0
BBX 11 4 1 13
BITMAP
7860
CFC0
8780
8000
ENDCHAR
STARTCHAR nonbreakingspace
ENCODING 160
SWIDTH 375 0
DWIDTH 12 0
BBX 1 1 0 0
BITMAP
00
ENDCHAR
STARTCHAR exclamdown
ENCODING 161
SWIDTH 149 0
DWIDTH 5 0
BBX 3 21 1 0
BITMAP
E0
E0
60
00
00
00
00
40
C0
C0
C0
C0
C0
C0
C0
C0
C0
C0
C0
C0
C0
ENDCHAR
STARTCHAR cent
ENCODING 162
SWIDTH 449 0
DWIDTH 14 0
BBX 13 19 1 -2
BITMAP
0400
0600
0600
0F80
3BC0
6240
4340
C340
C300
8300
8300
C300
C300
E300
7300
7FF8
1FE0
0300
0200
ENDCHAR
STARTCHAR sterling
ENCODING 163
SWIDTH 758 0
DWIDTH 24 0
BBX 23 23 0 0
BITMAP
0000F8
0003FC
000306
000602
000402
000C00
000800
001800
001800
007FE0
07FE20
0E3800
003000
003000
002000
002000
006000
006000
00C000
7FFE00
FFFF80
7F0E00
3C0000
ENDCHAR
STARTCHAR currency
ENCODING 164
SWIDTH 618 0
DWIDTH 20 0
BBX 17 16 1 1
BITMAP
C00000
60F980
77FF00
3F1E00
1C0600
180300
300100
300100
300100
300300
100300
180600
1E1C00
3FFC00
300600
600300
ENDCHAR
STARTCHAR yen
ENCODING 165
SWIDTH 389 0
DWIDTH 12 0
BBX 13 24 0 0
BITMAP
6000
6008
3038
3030
1060
1860
08C0
08C0
0D80
0780
0700
0300
0300
7F00
FFE0
0300
0200
7FC0
7FE0
0600
0600
0600
0600
0600
ENDCHAR
STARTCHAR brokenbar
ENCODING 166
SWIDTH 117 0
DWIDTH 4 0
BBX 2 18 1 0
BITMAP
80
C0
C0
C0
C0
C0
C0
C0
00
C0
C0
C0
C0
C0
C0
C0
C0
C0
ENDCHAR
STARTCHAR section
ENCODING 167
SWIDTH 514 0
DWIDTH 16 0
BBX 15 21 1 0
BITMAP
1FC0
7FF0
6038
6018
600C
7000
1FC0
3FF8
F01E
C006
C006
E006
781E
3FFC
01F8
000C
000C
C00E
700C
3FFC
0FF0
ENDCHAR
STARTCHAR dieresis
ENCODING 168
SWIDTH 397 0
DWIDTH 13 0
BBX 8 3 2 14
BITMAP
63
E7
E7
ENDCHAR
STARTCHAR copyright
ENCODING 169
SWIDTH 667 0
DWIDTH 21 0
BBX 20 18 1 0
BITMAP
03E000
0FFC00
181F00
300780
21F1C0
6318C0
460860
C40860
C40820
CC0030
CC0030
C40030
660030
67FE30
31FEE0
3C03C0
0FFF00
03F800
ENDCHAR
STARTCHAR ordfeminine
ENCODING 170
SWIDTH 266 0
DWIDTH 9 0
BBX 7 9 1 7
BITMAP
20
58
0C
04
FC
86
82
84
7E
ENDCHAR
STARTCHAR guillemotleft
ENCODING 171
SWIDTH 755 0
DWIDTH 24 0
BBX 22 15 0 0
BITMAP
00000C
000038
000E70
001DC0
007380
00EE00
039C00
073000
1C6000
38F800
707FE0
FC07F8
7FE018
07F800
001C00
ENDCHAR
STARTCHAR logicalnot
ENCODING 172
SWIDTH 369 0
DWIDTH 12 0
BBX 10 5 1 8
BITMAP
FFC0
FFC0
00C0
00C0
00C0
ENDCHAR
STARTCHAR hyphen_
ENCODING 173
SWIDTH 375 0
DWIDTH 12 0
BBX 11 2 0 8
BITMAP
3FE0
FFE0
ENDCHAR
STARTCHAR registered
ENCODING 174
SWIDTH 708 0
DWIDTH 23 0
BBX 20 18 1 0
BITMAP
07F800
1C7E00
100F00
300380
6FFCC0
4806E0
CB0660
C30620
C3FC30
C1F030
C18030
C16030
61B030
719860
3907E0
1E0F80
07FE00
00C000
ENDCHAR
STARTCHAR macron
ENCODING 175
SWIDTH 287 0
DWIDTH 9 0
BBX 8 2 1 15
BITMAP
7F
FF
ENDCHAR
STARTCHAR degree
ENCODING 176
SWIDTH 254 0
DWIDTH 8 0
BBX 7 9 0 9
BITMAP
18
7C
44
82
82
82
86
4C
38
ENDCHAR
STARTCHAR plusminus
ENCODING 177
SWIDTH 459 0
DWIDTH 15 0
BBX 14 14 0 1
BITMAP
0600
0600
0300
0300
0300
07FC
7FFC
E380
0180
0180
0180
0180
1FFC
3E00
ENDCHAR
STARTCHAR twosuperior
ENCODING 178
SWIDTH 296 0
DWIDTH 10 0
BBX 8 10 0 7
BITMAP
0E
12
02
01
02
02
02
E4
FC
77
ENDCHAR
STARTCHAR threesuperior
ENCODING 179
SWIDTH 204 0
DWIDTH 7 0
BBX 6 10 0 8
BITMAP
F8
08
08
70
78
0C
04
84
44
3C
ENDCHAR
STARTCHAR acute
ENCODING 180
SWIDTH 180 0
DWIDTH 6 0
BBX 5 5 0 13
BITMAP
08
18
30
60
C0
ENDCHAR
STARTCHAR mu
ENCODING 181
SWIDTH 501 0
DWIDTH 16 0
BBX 16 17 0 -2
BITMAP
4000
4018
C018
C018
401C
401C
601C
E01C
E01C
F03C
F07C
DCE6
DFC6
C786
C003
C000
C000
ENDCHAR
STARTCHAR paragraph
ENCODING 182
SWIDTH 413 0
DWIDTH 13 0
BBX 11 17 1 -1
BITMAP
3FC0
7FC0
FFE0
FF60
FF60
FF60
FF60
7760
0360
0360
0360
0360
0360
0360
0360
0360
0040
ENDCHAR
STARTCHAR periodcentered
ENCODING 183
SWIDTH 212 0
DWIDTH 7 0
BBX 3 3 2 6
BITMAP
E0
E0
E0
ENDCHAR
STARTCHAR cedilla
ENCODING 184
SWIDTH 445 0
DWIDTH 14 0
BBX 8 11 5 -10
BITMAP
80
C0
C0
40
78
0E
03
83
E3
7E
1C
ENDCHAR
STARTCHAR onesuperior
ENCODING 185
SWIDTH 197 0
DWIDTH 6 0
BBX 6 13 0 7
BITMAP
04
04
0C
0C
18
38
78
D8
98
18
18
10
10
ENDCHAR
STARTCHAR ordmasculine
ENCODING 186
SWIDTH 254 0
DWIDTH 8 0
BBX 7 9 0 9
BITMAP
18
7C
44
82
82
82
86
4C
38
ENDCHAR
STARTCHAR guillemotright
ENCODING 187
SWIDTH 659 0
DWIDTH 21 0
BBX 19 16 1 0
BITMAP
010000
C1C000
E0E000
787C00
1F1FC0
07F1E0
0070E0
0071C0
00E380
01C700
030E00
0E3800
1C7000
71C000
E18000
C00000
ENDCHAR
STARTCHAR onequarter
ENCODING 188
SWIDTH 626 0
DWIDTH 20 0
BBX 17 24 1 -1
BITMAP
004000
004000
0CC000
08C000
088000
188000
388000
798000
D98000
990000
190000
132000
136000
126000
024080
064080
064180
044380
0C7F80
0C1D80
080080
180080
180080
100000
ENDCHAR
STARTCHAR onehalf
ENCODING 189
SWIDTH 566 0
DWIDTH 18 0
BBX 17 24 0 -1
BITMAP
002000
022000
062000
062000
066000
0E4000
1C4000
3C4000
2CC000
6CC000
CC8600
0D8B00
0D8900
099100
090100
0B0100
030100
020100
060300
068200
04F400
0CFF00
0C2380
080000
ENDCHAR
STARTCHAR threequarters
ENCODING 190
SWIDTH 566 0
DWIDTH 18 0
BBX 17 25 0 -2
BITMAP
002000
002000
002000
002000
782000
446000
044000
084000
704000
18D000
04D000
02B000
C2A080
63A080
1DA080
012180
013380
031F80
030C80
020080
060080
060080
040000
040000
040000
ENDCHAR
STARTCHAR questiondown
ENCODING 191
SWIDTH 272 0
DWIDTH 9 0
BBX 8 24 1 0
BITMAP
C0
C0
00
00
00
00
00
00
C0
FC
1C
1C
18
38
70
60
E0
C0
C0
C0
C0
E1
7F
1E
ENDCHAR
STARTCHAR Agrave
ENCODING 192
SWIDTH 562 0
DWIDTH 18 0
BBX 16 30 1 0
BITMAP
0200
0380
01C0
00C0
0000
0000
0FC0
1870
3030
2018
2008
600C
4004
4006
4006
4006
4002
4002
4003
FF07
FFFF
C003
4003
4003
4003
6003
6003
6003
6003
2002
ENDCHAR
STARTCHAR Aacute
ENCODING 193
SWIDTH 562 0
DWIDTH 18 0
BBX 16 30 1 0
BITMAP
0100
0300
0600
0C00
1800
0000
0FC0
1870
3030
2018
2008
600C
4004
4006
4006
4006
4002
4002
4003
FF07
FFFF
C003
4003
4003
4003
6003
6003
6003
6003
2002
ENDCHAR
STARTCHAR Acircumflex
ENCODING 194
SWIDTH 562 0
DWIDTH 18 0
BBX 16 31 1 0
BITMAP
0300
0380
07C0
0FE0
1CE0
3860
0000
0FC0
1870
3030
2018
2008
600C
4004
4006
4006
4006
4002
4002
4003
FF07
FFFF
C003
4003
4003
4003
6003
6003
6003
6003
2002
ENDCHAR
STARTCHAR Atilde
ENCODING 195
SWIDTH 562 0
DWIDTH 18 0
BBX 16 29 1 0
BITMAP
3C18
23F0
21E0
2000
0000
0FC0
1870
3030
2018
2008
600C
4004
4006
4006
4006
4002
4002
4003
FF07
FFFF
C003
4003
4003
4003
6003
6003
6003
6003
2002
ENDCHAR
STARTCHAR Adieresis
ENCODING 196
SWIDTH 562 0
DWIDTH 18 0
BBX 16 29 1 0
BITMAP
0C60
1EF0
0C60
0000
0000
0FC0
1870
3030
2018
2008
600C
4004
4006
4006
4006
4002
4002
4003
FF07
FFFF
C003
4003
4003
4003
6003
6003
6003
6003
2002
ENDCHAR
STARTCHAR Aring
ENCODING 197
SWIDTH 562 0
DWIDTH 18 0
BBX 16 29 1 0
BITMAP
0780
0CC0
0840
08C0
0780
0FC0
1870
3030
2018
2008
600C
4004
4006
4006
4006
4002
4002
4003
FF07
FFFF
C003
4003
4003
4003
6003
6003
6003
6003
2002
ENDCHAR
STARTCHAR AE
ENCODING 198
SWIDTH 960 0
DWIDTH 31 0
BBX 29 24 1 0
BITMAP
0FC00000
18700000
30300000
20180000
2009FFE0
600DFFF0
40058008
40078000
40078000
40078000
40038000
40038070
4003FFE0
FF07FC00
FFFF0000
C0030000
40030000
40030000
40030000
60030000
60030000
600380F8
6003FFF8
2002FFC0
ENDCHAR
STARTCHAR Ccedilla
ENCODING 199
SWIDTH 515 0
DWIDTH 17 0
BBX 15 31 1 -10
BITMAP
00E0
03F0
0730
0C20
1820
3040
6000
4000
C000
8000
8000
8000
8000
8000
8000
C000
C000
6000
707E
3FF8
1F00
0800
0800
0C00
0780
01E0
0060
1020
0C20
0FE0
0380
ENDCHAR
STARTCHAR Egrave
ENCODING 200
SWIDTH 524 0
DWIDTH 17 0
BBX 14 26 1 0
BITMAP
0400
0700
0380
0180
0000
0000
FFF0
FFFC
C004
C000
C000
C000
C000
C038
DFF0
FF00
C000
8000
8000
8000
8000
8000
8000
C03C
FFFC
7FF0
ENDCHAR
STARTCHAR Eacute
ENCODING 201
SWIDTH 524 0
DWIDTH 17 0
BBX 14 26 1 0
BITMAP
0080
0180
0300
0600
0C00
0000
FFF0
FFFC
C004
C000
C000
C000
C000
C038
DFF0
FF00
C000
8000
8000
8000
8000
8000
8000
C03C
FFFC
7FF0
ENDCHAR
STARTCHAR Ecircumflex
ENCODING 202
SWIDTH 524 0
DWIDTH 17 0
BBX 14 28 1 0
BITMAP
0180
03C0
03C0
06E0
0C70
1830
0000
0000
FFF0
FFFC
C004
C000
C000
C000
C000
C038
DFF0
FF00
C000
8000
8000
8000
8000
8000
8000
C03C
FFFC
7FF0
ENDCHAR
STARTCHAR Edieresis
ENCODING 203
SWIDTH 524 0
DWIDTH 17 0
BBX 14 25 1 0
BITMAP
0C60
1CE0
1CE0
0000
0000
FFF0
FFFC
C004
C000
C000
C000
C000
C038
DFF0
FF00
C000
8000
8000
8000
8000
8000
8000
C03C
FFFC
7FF0
ENDCHAR
STARTCHAR Igrave
ENCODING 204
SWIDTH 167 0
DWIDTH 5 0
BBX 6 25 -1 0
BITMAP
C0
60
30
18
00
00
00
40
20
20
30
30
30
10
18
18
18
18
18
08
08
0C
0C
0C
0C
ENDCHAR
STARTCHAR Iacute
ENCODING 205
SWIDTH 167 0
DWIDTH 5 0
BBX 6 24 -1 0
BITMAP
08
18
30
60
C0
00
40
20
20
30
30
30
10
18
18
18
18
18
08
08
0C
0C
0C
0C
ENDCHAR
STARTCHAR Icircumflex
ENCODING 206
SWIDTH 167 0
DWIDTH 5 0
BBX 9 28 -2 0
BITMAP
0C00
0E00
1F00
3F80
7380
E180
0000
0000
0000
0000
2000
1000
1000
1800
1800
1800
0800
0C00
0C00
0C00
0C00
0C00
0400
0400
0600
0600
0600
0600
ENDCHAR
STARTCHAR Idieresis
ENCODING 207
SWIDTH 167 0
DWIDTH 5 0
BBX 8 22 -3 0
BITMAP
C2
E7
E7
00
10
08
08
0C
0C
0C
04
06
06
06
06
06
02
02
03
03
03
03
ENDCHAR
STARTCHAR Eth
ENCODING 208
SWIDTH 741 0
DWIDTH 24 0
BBX 22 20 1 0
BITMAP
3FC000
FFF800
80DE00
00C380
00C1C0
006060
006030
006038
007E18
03FF0C
03A00C
00200C
00300C
00300C
003018
003038
003070
0100F0
01FFC0
00FF80
ENDCHAR
STARTCHAR Ntilde
ENCODING 209
SWIDTH 609 0
DWIDTH 20 0
BBX 18 22 1 0
BITMAP
0F0600
18D800
187000
080000
000000
C00000
C00400
C00600
600700
600700
E00300
F00180
F00180
F80080
D800C0
CC00C0
CC00C0
C60180
C30180
C1E700
C0FE00
C03800
ENDCHAR
STARTCHAR Ograve
ENCODING 210
SWIDTH 609 0
DWIDTH 20 0
BBX 18 23 1 0
BITMAP
010000
01C000
00E000
002000
000000
000000
000000
040000
3FC000
73F000
603800
C00E00
800600
800300
800180
800180
C00080
C000C0
600080
700180
3C0700
1FFE00
07F000
ENDCHAR
STARTCHAR Oacute
ENCODING 211
SWIDTH 609 0
DWIDTH 20 0
BBX 18 23 1 0
BITMAP
004000
00E000
01C000
038000
020000
000000
000000
040000
3FC000
73F000
603800
C00E00
800600
800300
800180
800180
C00080
C000C0
600080
700180
3C0700
1FFE00
07F000
ENDCHAR
STARTCHAR Ocircumflex
ENCODING 212
SWIDTH 609 0
DWIDTH 20 0
BBX 18 24 1 0
BITMAP
060000
070000
0F8000
1DC000
38C000
30C000
000000
000000
040000
3FC000
73F000
603800
C00E00
800600
800300
800180
800180
C00080
C000C0
600080
700180
3C0700
1FFE00
07F000
ENDCHAR
STARTCHAR Otilde
ENCODING 213
SWIDTH 609 0
DWIDTH 20 0
BBX 18 21 1 0
BITMAP
3E1800
33F000
21E000
200000
000000
040000
3FC000
73F000
603800
C00E00
800600
800300
800180
800180
C00080
C000C0
600080
700180
3C0700
1FFE00
07F000
ENDCHAR
STARTCHAR Odieresis
ENCODING 214
SWIDTH 609 0
DWIDTH 20 0
BBX 18 22 1 0
BITMAP
063000
073800
073800
000000
000000
000000
040000
3FC000
73F000
603800
C00E00
800600
800300
800180
800180
C00080
C000C0
600080
700180
3C0700
1FFE00
07F000
ENDCHAR
STARTCHAR multiply
ENCODING 215
SWIDTH 448 0
DWIDTH 14 0
BBX 9 8 2 2
BITMAP
C180
E300
7E00
3C00
1C00
3600
6300
C200
ENDCHAR
STARTCHAR Oslash
ENCODING 216
SWIDTH 609 0
DWIDTH 20 0
BBX 18 24 1 -3
BITMAP
001000
003000
003000
003000
002000
046000
3FE000
73F000
60F800
C0CE00
80C600
818300
818180
818180
C30080
C300C0
670080
760180
3E0700
1FFE00
0FF000
1C0000
180000
180000
ENDCHAR
STARTCHAR Ugrave
ENCODING 217
SWIDTH 571 0
DWIDTH 18 0
BBX 17 23 1 0
BITMAP
030000
018000
00C000
006000
000000
000000
600800
C00C00
800C00
800C00
800C00
800C00
800C00
C00400
C00600
C00600
400600
600700
600F00
301F00
387380
1FC180
0F8000
ENDCHAR
STARTCHAR Uacute
ENCODING 218
SWIDTH 571 0
DWIDTH 18 0
BBX 17 23 1 0
BITMAP
00C000
00C000
038000
070000
060000
000000
600800
C00C00
800C00
800C00
800C00
800C00
800C00
C00400
C00600
C00600
400600
600700
600F00
301F00
387380
1FC180
0F8000
ENDCHAR
STARTCHAR Ucircumflex
ENCODING 219
SWIDTH 571 0
DWIDTH 18 0
BBX 17 28 1 0
BITMAP
018000
01C000
01E000
037000
0E3000
0C1800
000000
000000
000000
000000
000000
600800
C00C00
800C00
800C00
800C00
800C00
800C00
C00400
C00600
C00600
400600
600700
600F00
301F00
387380
1FC180
0F8000
ENDCHAR
STARTCHAR Udieresis
ENCODING 220
SWIDTH 571 0
DWIDTH 18 0
BBX 17 22 1 0
BITMAP
042000
0E7000
0E7000
000000
000000
600800
C00C00
800C00
800C00
800C00
800C00
800C00
C00400
C00600
C00600
400600
600700
600F00
301F00
387380
1FC180
0F8000
ENDCHAR
STARTCHAR Yacute
ENCODING 221
SWIDTH 403 0
DWIDTH 13 0
BBX 11 28 1 -1
BITMAP
0080
01C0
0380
0700
0400
0000
8000
8000
8020
C020
E060
7060
38E0
1EC0
07C0
03C0
0180
0180
0300
0300
0300
0200
0600
0600
0600
0600
0600
0400
ENDCHAR
STARTCHAR Thorn
ENCODING 222
SWIDTH 497 0
DWIDTH 16 0
BBX 13 24 2 -5
BITMAP
C000
C000
C000
C000
C000
8000
8000
8000
BE00
FF80
E1E0
C070
C018
C018
C008
E018
F038
FFF0
CFC0
C000
C000
C000
C000
4000
ENDCHAR
STARTCHAR germandbls
ENCODING 223
SWIDTH 590 0
DWIDTH 19 0
BBX 17 26 1 -4
BITMAP
7E0000
FF8000
E0C000
C06000
C06000
C06000
C04000
C1C000
4F8000
67C000
61F000
607800
600E00
600700
600300
200180
200180
200180
200380
23FF00
23FC00
200000
300000
700000
700000
700000
ENDCHAR
STARTCHAR agrave
ENCODING 224
SWIDTH 505 0
DWIDTH 16 0
BBX 14 21 1 0
BITMAP
0C00
0600
0300
0180
0000
0F00
0FC0
10E0
0060
0030
0018
1F98
3FF8
E03C
C01C
800C
8004
C004
F03C
3FFC
0FE0
ENDCHAR
STARTCHAR aacute
ENCODING 225
SWIDTH 505 0
DWIDTH 16 0
BBX 14 23 1 0
BITMAP
0100
0180
0700
0E00
0C00
0000
0000
0F00
0FC0
10E0
0060
0030
0018
1F98
3FF8
E03C
C01C
800C
8004
C004
F03C
3FFC
0FE0
ENDCHAR
STARTCHAR acircumflex
ENCODING 226
SWIDTH 505 0
DWIDTH 16 0
BBX 14 23 1 0
BITMAP
0300
0380
03C0
06E0
1C60
1820
0000
0F00
0FC0
10E0
0060
0030
0018
1F98
3FF8
E03C
C01C
800C
8004
C004
F03C
3FFC
0FE0
ENDCHAR
STARTCHAR atilde
ENCODING 227
SWIDTH 505 0
DWIDTH 16 0
BBX 14 22 1 0
BITMAP
3C30
6760
61C0
6000
0000
0000
0F00
0FC0
10E0
0060
0030
0018
1F98
3FF8
E03C
C01C
800C
8004
C004
F03C
3FFC
0FE0
ENDCHAR
STARTCHAR adieresis
ENCODING 228
SWIDTH 505 0
DWIDTH 16 0
BBX 14 21 1 0
BITMAP
0860
1CE0
1CE0
0000
0000
0F00
0FC0
10E0
0060
0030
0018
1F98
3FF8
E03C
C01C
800C
8004
C004
F03C
3FFC
0FE0
ENDCHAR
STARTCHAR aring
ENCODING 229
SWIDTH 505 0
DWIDTH 16 0
BBX 14 21 1 0
BITMAP
0380
04C0
0840
0840
0780
0F00
0FC0
10E0
0060
0030
0018
1F98
3FF8
E03C
C01C
800C
8004
C004
F03C
3FFC
0FE0
ENDCHAR
STARTCHAR ae
ENCODING 230
SWIDTH 881 0
DWIDTH 28 0
BBX 27 17 1 -1
BITMAP
0F007000
0FC1FC00
10E30E00
00660600
00340600
001C0600
1F9C0600
3FFC1C00
E03FF800
C01DE000
800C0000
800C0000
C0060000
F03F0000
3FFDF060
0FE0FFC0
00001E00
ENDCHAR
STARTCHAR ccedilla
ENCODING 231
SWIDTH 449 0
DWIDTH 14 0
BBX 13 24 1 -10
BITMAP
0F80
39C0
6040
4040
C040
C000
8000
8000
C000
C000
E000
7000
3FF8
0FF0
1800
0800
0C00
0780
00E0
0020
1820
0C20
07C0
0100
ENDCHAR
STARTCHAR egrave
ENCODING 232
SWIDTH 515 0
DWIDTH 17 0
BBX 15 22 1 0
BITMAP
0800
0E00
0700
0300
0000
0200
1F80
30C0
6060
C060
C060
8060
81C0
A780
BE00
C000
C000
C000
6000
3C00
1FFE
07F0
ENDCHAR
STARTCHAR eacute
ENCODING 233
SWIDTH 515 0
DWIDTH 17 0
BBX 15 23 1 0
BITMAP
0100
0380
0700
0C00
0800
0000
0200
1F80
30C0
6060
C060
C060
8060
81C0
A780
BE00
C000
C000
C000
6000
3C00
1FFE
07F0
ENDCHAR
STARTCHAR ecircumflex
ENCODING 234
SWIDTH 515 0
DWIDTH 17 0
BBX 15 23 1 0
BITMAP
0180
0380
03C0
06E0
0C70
1830
0200
1F80
30C0
6060
C060
C060
8060
81C0
A780
BE00
C000
C000
C000
6000
3C00
1FFE
07F0
ENDCHAR
STARTCHAR edieresis
ENCODING 235
SWIDTH 515 0
DWIDTH 17 0
BBX 15 20 1 0
BITMAP
18C0
1CE0
39C0
0200
1F80
30C0
6060
C060
C060
8060
81C0
A780
BE00
C000
C000
C000
6000
3C00
1FFE
07F0
ENDCHAR
STARTCHAR igrave
ENCODING 236
SWIDTH 174 0
DWIDTH 6 0
BBX 5 19 0 0
BITMAP
E0
70
38
18
00
30
20
30
30
30
30
30
30
38
38
18
18
18
18
ENDCHAR
STARTCHAR iacute
ENCODING 237
SWIDTH 174 0
DWIDTH 6 0
BBX 5 20 0 0
BITMAP
18
30
60
C0
80
00
30
20
30
30
30
30
30
30
38
38
18
18
18
18
ENDCHAR
STARTCHAR icircumflex
ENCODING 238
SWIDTH 174 0
DWIDTH 6 0
BBX 9 23 -2 0
BITMAP
0C00
0E00
1F00
3F80
7380
E180
0000
0000
0000
0C00
0800
0C00
0C00
0C00
0C00
0C00
0C00
0E00
0E00
0600
0600
0600
0600
ENDCHAR
STARTCHAR idieresis
ENCODING 239
SWIDTH 174 0
DWIDTH 6 0
BBX 9 19 -2 0
BITMAP
6300
7380
F780
0000
0000
0C00
0800
0C00
0C00
0C00
0C00
0C00
0C00
0E00
0E00
0600
0600
0600
0600
ENDCHAR
STARTCHAR eth
ENCODING 240
SWIDTH 407 0
DWIDTH 13 0
BBX 12 17 1 0
BITMAP
F000
FC00
8E70
03F0
0FC0
1EC0
18C0
0060
3FE0
60E0
C030
C030
8030
C020
C060
7FC0
3F80
ENDCHAR
STARTCHAR ntilde
ENCODING 241
SWIDTH 459 0
DWIDTH 15 0
BBX 13 20 1 0
BITMAP
7860
CFC0
8380
8000
0000
0000
0780
9FC0
F0E0
E060
C030
C030
C038
C018
C018
C018
6018
6018
6018
2018
ENDCHAR
STARTCHAR ograve
ENCODING 242
SWIDTH 487 0
DWIDTH 16 0
BBX 14 18 1 0
BITMAP
0400
0700
0380
0080
0000
07C0
1FE0
7070
6018
C018
800C
800C
800C
C018
C038
60F0
3FE0
1F80
ENDCHAR
STARTCHAR oacute
ENCODING 243
SWIDTH 487 0
DWIDTH 16 0
BBX 14 20 1 0
BITMAP
0100
0180
0700
0E00
0C00
0000
0000
07C0
1FE0
7070
6018
C018
800C
800C
800C
C018
C038
60F0
3FE0
1F80
ENDCHAR
STARTCHAR ocircumflex
ENCODING 244
SWIDTH 487 0
DWIDTH 16 0
BBX 14 21 1 0
BITMAP
0300
0380
0780
0DC0
1CE0
3860
0000
0000
07C0
1FE0
7070
6018
C018
800C
800C
800C
C018
C038
60F0
3FE0
1F80
ENDCHAR
STARTCHAR otilde
ENCODING 245
SWIDTH 487 0
DWIDTH 16 0
BBX 14 17 1 0
BITMAP
3C18
2360
61C0
2000
07C0
1FE0
7070
6018
C018
800C
800C
800C
C018
C038
60F0
3FE0
1F80
ENDCHAR
STARTCHAR odieresis
ENCODING 246
SWIDTH 487 0
DWIDTH 16 0
BBX 14 17 1 0
BITMAP
0840
1CE0
1CE0
0000
07C0
1FE0
7070
6018
C018
800C
800C
800C
C018
C038
60F0
3FE0
1F80
ENDCHAR
STARTCHAR divide
ENCODING 247
SWIDTH 335 0
DWIDTH 11 0
BBX 8 9 1 2
BITMAP
08
08
08
06
FF
80
00
08
08
ENDCHAR
STARTCHAR oslash
ENCODING 248
SWIDTH 487 0
DWIDTH 16 0
BBX 14 15 1 0
BITMAP
0020
0060
0FE0
3FF0
70F0
C198
C308
830C
860C
8E0C
CC18
D838
70F0
7FE0
7F80
ENDCHAR
STARTCHAR ugrave
ENCODING 249
SWIDTH 501 0
DWIDTH 16 0
BBX 16 22 0 0
BITMAP
0800
0600
0300
0180
0000
0000
0000
4000
4000
C018
C018
401C
401C
601C
601C
601C
303C
303C
1866
0FC6
0786
0003
ENDCHAR
STARTCHAR uacute
ENCODING 250
SWIDTH 501 0
DWIDTH 16 0
BBX 16 22 0 0
BITMAP
00C0
00C0
0380
0700
0600
0000
0000
4000
4000
C018
C018
401C
401C
601C
601C
601C
303C
303C
1866
0FC6
0786
0003
ENDCHAR
STARTCHAR ucircumflex
ENCODING 251
SWIDTH 501 0
DWIDTH 16 0
BBX 16 23 0 0
BITMAP
0180
01C0
03E0
0370
0E30
0C10
0000
0000
4000
4000
C018
C018
401C
401C
601C
601C
601C
303C
303C
1866
0FC6
0786
0003
ENDCHAR
STARTCHAR udieresis
ENCODING 252
SWIDTH 501 0
DWIDTH 16 0
BBX 16 20 0 0
BITMAP
0C60
1CE0
1CE0
0000
0000
4000
4000
C018
C018
401C
401C
601C
601C
601C
303C
303C
1866
0FC6
0786
0003
ENDCHAR
STARTCHAR yacute
ENCODING 253
SWIDTH 487 0
DWIDTH 16 0
BBX 14 38 1 -16
BITMAP
0100
0180
0700
0E00
0C00
0000
0000
0000
8010
8018
8018
8018
8018
C018
C008
C00C
601C
601C
303C
1DEC
0F84
0004
0004
0004
0004
000C
000C
000C
000C
000C
000C
C008
6018
7018
3830
1EF0
07E0
0080
ENDCHAR
STARTCHAR thorn
ENCODING 254
SWIDTH 520 0
DWIDTH 17 0
BBX 15 22 1 -6
BITMAP
4000
C000
C000
C000
C7E0
FFF8
F81C
E00C
C006
C006
C006
C00E
FFFC
FFF8
C000
C000
C000
C000
C000
C000
C000
C000
ENDCHAR
STARTCHAR ydieresis
ENCODING 255
SWIDTH 487 0
DWIDTH 16 0
BBX 14 35 1 -16
BITMAP
18C0
39C0
18C0
0000
0000
8010
8018
8018
8018
8018
C018
C008
C00C
601C
601C
303C
1DEC
0F84
0004
0004
0004
0004
000C
000C
000C
000C
000C
000C
C008
6018
7018
3830
1EF0
07E0
0080
ENDCHAR
STARTCHAR Amacron
ENCODING 256
SWIDTH 562 0
DWIDTH 18 0
BBX 16 28 1 0
BITMAP
1FE0
1FE0
0000
0000
0FC0
1870
3030
2018
2008
600C
4004
4006
4006
4006
4002
4002
4003
FF07
FFFF
C003
4003
4003
4003
6003
6003
6003
6003
2002
ENDCHAR
STARTCHAR amacron
ENCODING 257
SWIDTH 505 0
DWIDTH 16 0
BBX 14 21 1 0
BITMAP
1FE0
1FE0
0000
0000
0000
0F00
0FC0
10E0
0060
0030
0018
1F98
3FF8
E03C
C01C
800C
8004
C004
F03C
3FFC
0FE0
ENDCHAR
STARTCHAR Abreve
ENCODING 258
SWIDTH 562 0
DWIDTH 18 0
BBX 16 30 1 0
BITMAP
0420
0660
03C0
0000
0000
0000
0FC0
1870
3030
2018
2008
600C
4004
4006
4006
4006
4002
4002
4003
FF07
FFFF
C003
4003
4003
4003
6003
6003
6003
6003
2002
ENDCHAR
STARTCHAR abreve
ENCODING 259
SWIDTH 505 0
DWIDTH 16 0
BBX 14 21 1 0
BITMAP
0880
0880
0F00
0000
0000
0F00
0FC0
10E0
0060
0030
0018
1F98
3FF8
E03C
C01C
800C
8004
C004
F03C
3FFC
0FE0
ENDCHAR
STARTCHAR Aogonek
ENCODING 260
SWIDTH 562 0
DWIDTH 18 0
BBX 17 29 1 -5
BITMAP
0FC000
187000
303000
201800
200800
600C00
400400
400600
400600
400600
400200
400200
400300
FF0700
FFFF00
C00300
400300
400300
400300
600300
600300
600300
600300
200E00
001800
001000
001000
001F80
000180
ENDCHAR
STARTCHAR aogonek
ENCODING 261
SWIDTH 505 0
DWIDTH 16 0
BBX 14 20 1 -4
BITMAP
0F00
0FC0
10E0
0060
0030
0018
1F98
3FF8
E03C
C01C
800C
8004
C004
F03C
3FFC
0FE0
00C0
0080
00E0
003C
ENDCHAR
STARTCHAR Cacute
ENCODING 262
SWIDTH 515 0
DWIDTH 17 0
BBX 15 27 1 0
BITMAP
0040
0060
01C0
0380
0200
0000
00E0
03F0
0730
0C20
1820
3040
6000
4000
C000
8000
8000
8000
8000
8000
8000
C000
C000
6000
707E
3FF8
1F00
ENDCHAR
STARTCHAR cacute
ENCODING 263
SWIDTH 449 0
DWIDTH 14 0
BBX 13 21 1 0
BITMAP
0080
0180
0300
0600
0C00
0000
0000
0F80
3FC0
6040
6040
C040
C000
8000
8000
C000
C000
E000
7000
3FF8
0FF0
ENDCHAR
STARTCHAR Ccircumflex
ENCODING 264
SWIDTH 515 0
DWIDTH 17 0
BBX 15 28 1 0
BITMAP
0180
0380
03C0
06E0
0C70
1830
0000
00E0
03F0
0730
0C20
1820
3040
6000
4000
C000
8000
8000
8000
8000
8000
8000
C000
C000
6000
707E
3FF8
1F00
ENDCHAR
STARTCHAR ccircumflex
ENCODING 265
SWIDTH 449 0
DWIDTH 14 0
BBX 13 23 1 0
BITMAP
0600
0700
0780
0DC0
18C0
3060
0000
0000
0000
0F80
3FC0
6040
6040
C040
C000
8000
8000
C000
C000
E000
7000
3FF8
0FF0
ENDCHAR
STARTCHAR Cdotaccent
ENCODING 266
SWIDTH 515 0
DWIDTH 17 0
BBX 15 25 1 0
BITMAP
0100
0180
0180
0000
00E0
03F0
0730
0C20
1820
3040
6000
4000
C000
8000
8000
8000
8000
8000
8000
C000
C000
6000
707E
3FF8
1F00
ENDCHAR
STARTCHAR cdotaccent
ENCODING 267
SWIDTH 449 0
DWIDTH 14 0
BBX 13 18 1 0
BITMAP
0400
0600
0600
0000
0F80
3FC0
6040
6040
C040
C000
8000
8000
C000
C000
E000
7000
3FF8
0FF0
ENDCHAR
STARTCHAR Ccaron
ENCODING 268
SWIDTH 515 0
DWIDTH 17 0
BBX 15 26 1 0
BITMAP
0F38
01F0
00C0
0000
0000
00E0
03F0
0730
0C20
1820
3040
6000
4000
C000
8000
8000
8000
8000
8000
8000
C000
C000
6000
707E
3FF8
1F00
ENDCHAR
STARTCHAR ccaron
ENCODING 269
SWIDTH 449 0
DWIDTH 14 0
BBX 13 19 1 0
BITMAP
38E0
0F80
0700
0000
0000
0F80
3FC0
6040
6040
C040
C000
8000
8000
C000
C000
E000
7000
3FF8
0FF0
ENDCHAR
STARTCHAR Dcaron
ENCODING 270
SWIDTH 741 0
DWIDTH 24 0
BBX 22 24 1 0
BITMAP
01CE00
007C00
003800
000000
3FC000
FFF800
80DE00
00C380
0041C0
004060
006030
006038
006018
00600C
00600C
00200C
00300C
00300C
003018
003038
003070
0100F0
01FFC0
00FF80
ENDCHAR
STARTCHAR dcaron
ENCODING 271
SWIDTH 582 0
DWIDTH 19 0
BBX 17 24 1 0
BITMAP
000100
002180
007180
003180
003180
003980
003880
001800
001800
001C00
1E1C00
3F9C00
79FC00
E07C00
C03C00
C01C00
C01C00
C01C00
C03C00
C07E00
C0E600
61C600
3F8600
1E0000
ENDCHAR
STARTCHAR Dcroat
ENCODING 272
SWIDTH 741 0
DWIDTH 24 0
BBX 22 20 1 0
BITMAP
3FC000
FFF800
80DE00
00C380
0041C0
004060
006030
006038
006018
01F80C
03FC0C
04200C
00300C
00300C
003018
003038
003070
0100F0
01FFC0
00FF80
ENDCHAR
STARTCHAR dcroat
ENCODING 273
SWIDTH 524 0
DWIDTH 17 0
BBX 16 23 1 0
BITMAP
0060
0070
0030
0038
01FE
03FF
0418
0018
001C
3F1C
7FDC
70FC
E03C
C01C
C01C
C01C
C01C
C03C
C07E
E0E6
63C6
3F86
1E00
ENDCHAR
STARTCHAR Emacron
ENCODING 274
SWIDTH 524 0
DWIDTH 17 0
BBX 14 24 1 0
BITMAP
1FE0
1FE0
0000
0000
FFF0
FFFC
C004
C000
C000
C000
C000
C038
DFF0
FF00
C000
8000
8000
8000
8000
8000
8000
C03C
FFFC
7FF0
ENDCHAR
STARTCHAR emacron
ENCODING 275
SWIDTH 515 0
DWIDTH 17 0
BBX 15 21 1 0
BITMAP
1FE0
1FE0
0000
0000
0200
1F80
30C0
6060
C060
C060
8060
81C0
A780
BE00
C000
C000
C000
6000
3C00
1FFE
07F0
ENDCHAR
STARTCHAR Ebreve
ENCODING 276
SWIDTH 524 0
DWIDTH 17 0
BBX 14 25 1 0
BITMAP
08C0
0CC0
0780
0000
0000
FFF0
FFFC
C004
C000
C000
C000
C000
C038
DFF0
FF00
C000
8000
8000
8000
8000
8000
8000
C03C
FFFC
7FF0
ENDCHAR
STARTCHAR ebreve
ENCODING 277
SWIDTH 515 0
DWIDTH 17 0
BBX 15 22 1 0
BITMAP
0460
0660
03C0
0000
0000
0200
1F80
30C0
6060
C060
C060
8060
81C0
A780
BE00
C000
C000
C000
6000
3C00
1FFE
07F0
ENDCHAR
STARTCHAR Edotaccent
ENCODING 278
SWIDTH 524 0
DWIDTH 17 0
BBX 14 25 1 0
BITMAP
0200
0300
0300
0000
0000
FFF0
FFFC
C004
C000
C000
C000
C000
C038
DFF0
FF00
C000
8000
8000
8000
8000
8000
8000
C03C
FFFC
7FF0
ENDCHAR
STARTCHAR edotaccent
ENCODING 279
SWIDTH 515 0
DWIDTH 17 0
BBX 15 22 1 0
BITMAP
0400
0600
0600
0000
0000
0200
1F80
30C0
6060
C060
C060
8060
81C0
A780
BE00
C000
C000
C000
6000
3C00
1FFE
07F0
ENDCHAR
STARTCHAR Eogonek
ENCODING 280
SWIDTH 524 0
DWIDTH 17 0
BBX 14 25 1 -5
BITMAP
FFF0
FFFC
C004
C000
C000
C000
C000
C038
DFF0
FF00
C000
8000
8000
8000
8000
8000
8000
C03C
FFFC
7FF0
00C0
0180
0180
00F4
0018
ENDCHAR
STARTCHAR eogonek
ENCODING 281
SWIDTH 515 0
DWIDTH 17 0
BBX 15 21 1 -4
BITMAP
0200
1F80
30C0
6060
C060
C060
8060
81C0
A780
BE00
C000
C000
C000
6000
3C00
1FFE
07F0
0180
0180
0180
00F8
ENDCHAR
STARTCHAR Ecaron
ENCODING 282
SWIDTH 524 0
DWIDTH 17 0
BBX 14 24 1 0
BITMAP
1C70
03E0
0180
0000
FFF0
FFFC
C004
C000
C000
C000
C000
C038
DFF0
FF00
C000
8000
8000
8000
8000
8000
8000
C03C
FFFC
7FF0
ENDCHAR
STARTCHAR ecaron
ENCODING 283
SWIDTH 515 0
DWIDTH 17 0
BBX 15 22 1 0
BITMAP
1C70
07C0
0380
0000
0000
0200
1F80
30C0
6060
C060
C060
8060
81C0
A780
BE00
C000
C000
C000
6000
3C00
1FFE
07F0
ENDCHAR
STARTCHAR Gcircumflex
ENCODING 284
SWIDTH 571 0
DWIDTH 18 0
BBX 17 27 1 -2
BITMAP
003000
003800
007C00
00FE00
01CE00
038600
000000
000000
001C00
00FE00
03C300
060000
1C0000
300000
300000
610000
C1FE00
C0FF00
C00300
C00300
C00300
400700
701F00
3FFF00
0F0300
000300
000380
ENDCHAR
STARTCHAR gcircumflex
ENCODING 285
SWIDTH 366 0
DWIDTH 12 0
BBX 16 39 -4 -16
BITMAP
0060
0070
00F8
01FC
039C
030C
0000
0000
0000
0000
0078
00FC
018C
0304
0606
0606
0406
0406
060E
060E
07FE
03F6
0006
0006
0006
0002
0002
0003
0003
0003
8003
C003
C002
C006
7006
3C0E
1FDC
03F8
0020
ENDCHAR
STARTCHAR Gbreve
ENCODING 286
SWIDTH 571 0
DWIDTH 18 0
BBX 17 23 1 -2
BITMAP
042000
066000
03C000
000000
001C00
00FE00
03C300
060000
1C0000
300000
300000
610000
C1FE00
C0FF00
C00300
C00300
C00300
400700
701F00
3FFF00
0F0300
000300
000380
ENDCHAR
STARTCHAR gbreve
ENCODING 287
SWIDTH 366 0
DWIDTH 12 0
BBX 16 34 -4 -16
BITMAP
0118
0190
00F0
0000
0000
0078
00FC
018C
0304
0606
0606
0406
0406
060E
060E
07FE
03F6
0006
0006
0006
0002
0002
0003
0003
0003
8003
C003
C002
C006
7006
3C0E
1FDC
03F8
0020
ENDCHAR
STARTCHAR Gdotaccent
ENCODING 288
SWIDTH 571 0
DWIDTH 18 0
BBX 17 23 1 -2
BITMAP
004000
006000
006000
000000
001C00
00FE00
03C300
060000
1C0000
300000
300000
610000
C1FE00
C0FF00
C00300
C00300
C00300
400700
701F00
3FFF00
0F0300
000300
000380
ENDCHAR
STARTCHAR gdotaccent
ENCODING 289
SWIDTH 366 0
DWIDTH 12 0
BBX 16 34 -4 -16
BITMAP
0040
0060
0060
0000
0000
0078
00FC
018C
0304
0606
0606
0406
0406
060E
060E
07FE
03F6
0006
0006
0006
0002
0002
0003
0003
0003
8003
C003
C002
C006
7006
3C0E
1FDC
03F8
0020
ENDCHAR
STARTCHAR Gcommaaccent
ENCODING 290
SWIDTH 571 0
DWIDTH 18 0
BBX 17 27 1 -10
BITMAP
001C00
00FE00
03C300
060000
1C0000
300000
300000
610000
C1FE00
C0FF00
C00300
C00300
C00300
400700
701F00
3FFF00
0F0300
000300
000380
000000
010000
018000
018000
018000
018000
018000
010000
ENDCHAR
STARTCHAR gcommaaccent
ENCODING 291
SWIDTH 366 0
DWIDTH 12 0
BBX 16 44 -4 -16
BITMAP
0040
0040
0060
0060
0060
0060
0060
0000
0000
0000
0000
0000
0000
0000
0000
0078
00FC
018C
0304
0606
0606
0406
0406
060E
060E
07FE
03F6
0006
0006
0006
0002
0002
0003
0003
0003
8003
C003
C002
C006
7006
3C0E
1FDC
03F8
0020
ENDCHAR
STARTCHAR Hcircumflex
ENCODING 292
SWIDTH 524 0
DWIDTH 17 0
BBX 16 30 0 0
BITMAP
00C0
01C0
01E0
0370
0638
0C18
0000
0000
0002
4006
4006
6006
6006
6006
6006
6006
2006
201E
207E
31E6
3786
3E06
7806
B006
3006
1006
1002
1003
1003
1003
ENDCHAR
STARTCHAR hcircumflex
ENCODING 293
SWIDTH 427 0
DWIDTH 14 0
BBX 13 25 0 0
BITMAP
0180
0380
83C0
86E0
CC60
D830
C000
C000
6000
6000
6000
7F80
7FC0
3060
2020
2030
2030
3010
3010
3010
3038
3038
3030
3030
1030
ENDCHAR
STARTCHAR hbar
ENCODING 295
SWIDTH 427 0
DWIDTH 14 0
BBX 16 23 -3 0
BITMAP
1000
1000
1800
1800
1800
3F00
7F80
CC00
0C00
0FF0
0FF8
060C
0404
0406
0406
0602
0602
0602
0607
0607
0606
0606
0206
ENDCHAR
STARTCHAR Itilde
ENCODING 296
SWIDTH 167 0
DWIDTH 5 0
BBX 12 22 -3 0
BITMAP
7830
46C0
C380
4000
1000
0800
0800
0C00
0C00
0C00
0400
0600
0600
0600
0600
0600
0200
0200
0300
0300
0300
0300
ENDCHAR
STARTCHAR itilde
ENCODING 297
SWIDTH 174 0
DWIDTH 6 0
BBX 12 21 -2 0
BITMAP
3830
6C60
C7C0
C100
4000
0000
0000
0C00
0800
0C00
0C00
0C00
0C00
0C00
0C00
0E00
0E00
0600
0600
0600
0600
ENDCHAR
STARTCHAR imacron
ENCODING 299
SWIDTH 174 0
DWIDTH 6 0
BBX 8 19 -1 0
BITMAP
FF
FF
00
00
00
18
10
18
18
18
18
18
18
1C
1C
0C
0C
0C
0C
ENDCHAR
STARTCHAR Ibreve
ENCODING 300
SWIDTH 167 0
DWIDTH 5 0
BBX 6 24 0 0
BITMAP
8C
CC
78
00
00
00
80
40
40
60
60
60
20
30
30
30
30
30
10
10
18
18
18
18
ENDCHAR
STARTCHAR ibreve
ENCODING 301
SWIDTH 174 0
DWIDTH 6 0
BBX 6 19 -1 0
BITMAP
C4
7C
38
00
00
18
10
18
18
18
18
18
18
1C
1C
0C
0C
0C
0C
ENDCHAR
STARTCHAR Iogonek
ENCODING 302
SWIDTH 167 0
DWIDTH 5 0
BBX 6 23 0 -5
BITMAP
80
40
40
60
60
60
20
30
30
30
30
30
10
10
18
18
18
78
E0
C0
C0
FC
1C
ENDCHAR
STARTCHAR iogonek
ENCODING 303
SWIDTH 174 0
DWIDTH 6 0
BBX 6 24 0 -5
BITMAP
C0
40
00
00
00
30
20
30
30
30
30
30
30
38
38
18
18
18
78
C0
80
80
F0
3C
ENDCHAR
STARTCHAR Idotaccent
ENCODING 304
SWIDTH 167 0
DWIDTH 5 0
BBX 5 24 0 0
BITMAP
80
C0
C0
00
00
00
80
40
40
60
60
60
20
30
30
30
30
30
10
10
18
18
18
18
ENDCHAR
STARTCHAR dotlessi
ENCODING 305
SWIDTH 174 0
DWIDTH 6 0
BBX 3 14 2 0
BITMAP
C0
80
C0
C0
C0
C0
C0
C0
E0
E0
60
60
60
60
ENDCHAR
STARTCHAR Jcircumflex
ENCODING 308
SWIDTH 439 0
DWIDTH 14 0
BBX 14 30 1 0
BITMAP
0060
00F0
00F0
01B8
031C
060C
0000
0040
0040
0060
0060
0060
0020
0030
0030
0030
0030
0030
0030
8010
8010
C018
C010
6010
3010
1810
0C30
0630
03E0
01E0
ENDCHAR
STARTCHAR jcircumflex
ENCODING 309
SWIDTH 200 0
DWIDTH 6 0
BBX 12 37 -4 -14
BITMAP
0380
0380
03C0
06E0
0C60
1830
0000
0000
0000
0000
0100
0100
0100
0180
0180
0180
0180
01C0
00C0
00C0
00C0
00C0
00E0
0060
0060
0060
8060
C060
4060
6060
6060
3060
3860
1860
0E60
07E0
03C0
ENDCHAR
STARTCHAR Kcommaaccent
ENCODING 310
SWIDTH 468 0
DWIDTH 15 0
BBX 13 29 1 -10
BITMAP
8040
8180
8380
8700
8E00
CC00
D800
F000
E000
6000
6000
F000
DC00
4E00
4700
41C0
60E0
6038
6018
0000
0000
0000
0200
0600
0300
0300
0300
0600
0600
ENDCHAR
STARTCHAR kcommaaccent
ENCODING 311
SWIDTH 403 0
DWIDTH 13 0
BBX 13 30 0 -10
BITMAP
8000
8000
C000
C000
C000
4000
60C0
6180
6300
6200
2C00
3C00
3800
3000
3800
3800
3E00
37C0
21F8
2070
0000
0000
0000
0200
0600
0300
0300
0200
0600
0600
ENDCHAR
STARTCHAR Lacute
ENCODING 313
SWIDTH 346 0
DWIDTH 11 0
BBX 10 24 1 0
BITMAP
0100
0380
0700
0E00
0800
0000
0000
4000
4000
C000
C000
C000
C000
C000
C000
C000
8000
8000
8000
8000
C000
E000
7FC0
3F80
ENDCHAR
STARTCHAR lacute
ENCODING 314
SWIDTH 120 0
DWIDTH 4 0
BBX 5 25 -1 0
BITMAP
08
18
30
60
C0
00
00
20
30
30
30
30
30
30
30
30
30
30
30
30
30
30
30
30
30
ENDCHAR
STARTCHAR Lcommaaccent
ENCODING 315
SWIDTH 346 0
DWIDTH 11 0
BBX 10 27 1 -10
BITMAP
4000
4000
C000
C000
C000
C000
C000
C000
C000
8000
8000
8000
8000
C000
E000
7FC0
3F80
0000
0000
0000
0800
1C00
0C00
0C00
0C00
1800
1800
ENDCHAR
STARTCHAR lcommaaccent
ENCODING 316
SWIDTH 120 0
DWIDTH 4 0
BBX 2 28 1 -10
BITMAP
80
C0
C0
C0
C0
C0
C0
C0
C0
C0
C0
C0
C0
C0
C0
C0
C0
C0
00
00
00
80
C0
C0
C0
C0
C0
80
ENDCHAR
STARTCHAR Lcaron
ENCODING 317
SWIDTH 346 0
DWIDTH 11 0
BBX 10 22 1 0
BITMAP
0C00
0C00
0400
0400
0600
4600
4600
C000
C000
C000
C000
C000
C000
C000
8000
8000
8000
8000
C000
E000
7FC0
3F80
ENDCHAR
STARTCHAR lcaron
ENCODING 318
SWIDTH 222 0
DWIDTH 7 0
BBX 6 23 1 0
BITMAP
18
18
18
08
0C
8C
CC
C0
C0
C0
C0
C0
C0
C0
C0
C0
C0
C0
C0
C0
C0
C0
C0
ENDCHAR
STARTCHAR Ldot
ENCODING 319
SWIDTH 346 0
DWIDTH 11 0
BBX 10 17 1 0
BITMAP
4000
4000
C000
C000
C000
C000
C000
C000
DC00
9C00
9E00
8000
8000
C000
E000
7FC0
3F80
ENDCHAR
STARTCHAR ldot
ENCODING 320
SWIDTH 333 0
DWIDTH 11 0
BBX 8 18 1 0
BITMAP
80
C0
C0
C0
C0
C0
C0
C0
C0
C7
CF
C7
C0
C0
C0
C0
C0
C0
ENDCHAR
STARTCHAR Lslash
ENCODING 321
SWIDTH 346 0
DWIDTH 11 0
BBX 12 17 0 0
BITMAP
1800
1800
1800
1800
1800
3000
3000
3400
3C00
3C00
F800
7000
3000
3000
1E00
1FF0
03E0
ENDCHAR
STARTCHAR lslash
ENCODING 322
SWIDTH 120 0
DWIDTH 4 0
BBX 8 19 -2 0
BITMAP
10
18
18
18
18
18
1A
1E
1F
38
78
D8
18
18
18
18
18
18
10
ENDCHAR
STARTCHAR Nacute
ENCODING 323
SWIDTH 609 0
DWIDTH 20 0
BBX 18 23 1 0
BITMAP
004000
00E000
01C000
038000
020000
000000
C00000
C00400
C00600
600700
600700
E00300
F00180
F00180
F80080
D800C0
CC00C0
CC00C0
C60180
C30180
C1E700
C0FE00
C03800
ENDCHAR
STARTCHAR nacute
ENCODING 324
SWIDTH 459 0
DWIDTH 15 0
BBX 13 22 1 0
BITMAP
0200
0300
0E00
1C00
1800
0000
0000
0000
0780
9FC0
F0E0
E060
C030
C030
C038
C018
C018
C018
6018
6018
6018
2018
ENDCHAR
STARTCHAR Ncommaaccent
ENCODING 325
SWIDTH 609 0
DWIDTH 20 0
BBX 18 27 1 -10
BITMAP
C00000
C00400
C00600
600700
600700
E00300
F00180
F00180
F80080
D800C0
CC00C0
CC00C0
C60180
C30180
C1E700
C0FE00
C03800
000000
000000
000000
008000
01C000
00C000
00C000
00C000
01C000
018000
ENDCHAR
STARTCHAR ncommaaccent
ENCODING 326
SWIDTH 459 0
DWIDTH 15 0
BBX 13 24 1 -10
BITMAP
0780
9FC0
F0E0
E060
C030
C030
C038
C018
C018
C018
6018
6018
6018
2018
0000
0000
0000
0200
0600
0200
0200
0200
0600
0600
ENDCHAR
STARTCHAR Ncaron
ENCODING 327
SWIDTH 609 0
DWIDTH 20 0
BBX 18 24 1 0
BITMAP
0F3800
01F000
00C000
000000
000000
000000
000000
C00000
C00400
C00600
600700
600700
E00300
F00180
F00180
F80080
D800C0
CC00C0
CC00C0
C60180
C30180
C1E700
C0FE00
C03800
ENDCHAR
STARTCHAR ncaron
ENCODING 328
SWIDTH 459 0
DWIDTH 15 0
BBX 13 19 1 0
BITMAP
38E0
07C0
0700
0000
0000
0780
9FC0
F0E0
E060
C030
C030
C038
C018
C018
C018
6018
6018
6018
2018
ENDCHAR
STARTCHAR napostrophe
ENCODING 329
SWIDTH 459 0
DWIDTH 15 0
BBX 13 22 1 0
BITMAP
2000
3000
3000
3000
3000
3000
2000
0000
0780
9FC0
F0E0
E060
C030
C030
C038
C018
C018
C018
6018
6018
6018
2018
ENDCHAR
STARTCHAR Omacron
ENCODING 332
SWIDTH 609 0
DWIDTH 20 0
BBX 18 22 1 0
BITMAP
07F800
07F800
000000
000000
000000
000000
040000
3FC000
73F000
603800
C00E00
800600
800300
800180
800180
C00080
C000C0
600080
700180
3C0700
1FFE00
07F000
ENDCHAR
STARTCHAR omacron
ENCODING 333
SWIDTH 487 0
DWIDTH 16 0
BBX 14 17 1 0
BITMAP
1FE0
1FE0
0000
0000
07C0
1FE0
7070
6018
C018
800C
800C
800C
C018
C038
60F0
3FE0
1F80
ENDCHAR
STARTCHAR Obreve
ENCODING 334
SWIDTH 609 0
DWIDTH 20 0
BBX 18 21 1 0
BITMAP
023000
022000
01E000
000000
000000
040000
3FC000
73F000
603800
C00E00
800600
800300
800180
800180
C00080
C000C0
600080
700180
3C0700
1FFE00
07F000
ENDCHAR
STARTCHAR obreve
ENCODING 335
SWIDTH 487 0
DWIDTH 16 0
BBX 14 19 1 0
BITMAP
1180
1100
0F00
0000
0000
0000
07C0
1FE0
7070
6018
C018
800C
800C
800C
C018
C038
60F0
3FE0
1F80
ENDCHAR
STARTCHAR Ohungarumlaut
ENCODING 336
SWIDTH 609 0
DWIDTH 20 0
BBX 18 23 1 0
BITMAP
012000
073000
06E000
04C000
000000
000000
000000
040000
3FC000
73F000
603800
C00E00
800600
800300
800180
800180
C00080
C000C0
600080
700180
3C0700
1FFE00
07F000
ENDCHAR
STARTCHAR ohungarumlaut
ENCODING 337
SWIDTH 487 0
DWIDTH 16 0
BBX 14 18 1 0
BITMAP
0480
1CC0
1980
1300
0000
07C0
1FE0
7070
6018
C018
800C
800C
800C
C018
C038
60F0
3FE0
1F80
ENDCHAR
STARTCHAR OE
ENCODING 338
SWIDTH 848 0
DWIDTH 27 0
BBX 26 16 1 0
BITMAP
04000000
3F9FFF80
71D80080
C0780000
C0780000
80380000
80380700
801FFE00
80180000
C0180000
C0180000
60180000
70380000
3C380000
1FFFFFC0
03C7FF00
ENDCHAR
STARTCHAR oe
ENCODING 339
SWIDTH 875 0
DWIDTH 28 0
BBX 27 16 1 -1
BITMAP
0001F800
00038C00
0FC60400
3FFC0600
707C0600
C01C0600
C0081C00
800C7800
800FE000
801C0000
C01C0000
C03C0000
60F60000
3FE38000
1F81FFE0
00007F00
ENDCHAR
STARTCHAR Racute
ENCODING 340
SWIDTH 579 0
DWIDTH 19 0
BBX 18 27 0 -1
BITMAP
001000
003800
007000
00C000
008000
000000
1FE000
7FFC00
C00E00
800300
880180
080180
080380
0C0F00
0CFE00
0FF000
0F0000
0E0000
070000
058000
04C000
066000
063000
021800
020E00
020700
0001C0
ENDCHAR
STARTCHAR racute
ENCODING 341
SWIDTH 346 0
DWIDTH 11 0
BBX 10 21 1 0
BITMAP
0200
0700
0E00
1800
1000
0000
0000
3F80
F3C0
C000
C000
C000
C000
C000
C000
C000
6000
6000
6000
3000
2000
ENDCHAR
STARTCHAR Rcommaaccent
ENCODING 342
SWIDTH 579 0
DWIDTH 19 0
BBX 18 30 0 -10
BITMAP
1FE000
7FFC00
C00E00
800300
880180
080180
080380
0C0F00
0CFE00
0FF000
0F0000
0E0000
070000
058000
04C000
066000
063000
021800
020E00
020700
0001C0
000000
000000
004000
00C000
006000
006000
004000
00C000
00C000
ENDCHAR
STARTCHAR rcommaaccent
ENCODING 343
SWIDTH 346 0
DWIDTH 11 0
BBX 10 24 1 -10
BITMAP
3F80
F3C0
C000
C000
C000
C000
C000
C000
C000
6000
6000
6000
3000
2000
0000
0000
0000
0800
1C00
0C00
0C00
0C00
1800
1800
ENDCHAR
STARTCHAR Rcaron
ENCODING 344
SWIDTH 579 0
DWIDTH 19 0
BBX 18 27 0 -1
BITMAP
071800
01F000
00E000
000000
000000
000000
1FE000
7FFC00
C00E00
800300
880180
080180
080380
0C0F00
0CFE00
0FF000
0F0000
0E0000
070000
058000
04C000
066000
063000
021800
020E00
020700
0001C0
ENDCHAR
STARTCHAR rcaron
ENCODING 345
SWIDTH 346 0
DWIDTH 11 0
BBX 10 19 1 0
BITMAP
F380
1F00
0C00
0000
0000
3F80
F3C0
C000
C000
C000
C000
C000
C000
C000
6000
6000
6000
3000
2000
ENDCHAR
STARTCHAR Sacute
ENCODING 346
SWIDTH 627 0
DWIDTH 20 0
BBX 18 26 1 0
BITMAP
002000
006000
00C000
018000
030000
000000
000000
03FC00
0F0F00
180300
180000
180000
0C0000
0E0000
078000
01E000
007800
001E00
800700
800180
C000C0
C000C0
6000C0
3000C0
1FFF80
03FE00
ENDCHAR
STARTCHAR sacute
ENCODING 347
SWIDTH 514 0
DWIDTH 16 0
BBX 15 23 1 0
BITMAP
0040
00C0
0180
0300
0600
0000
0000
0000
0E00
3F80
60C0
C040
C040
4080
7800
1FF0
0078
000C
000C
C00E
E00C
7FFC
1FF0
ENDCHAR
STARTCHAR Scircumflex
ENCODING 348
SWIDTH 627 0
DWIDTH 20 0
BBX 18 28 1 0
BITMAP
00C000
00E000
01F000
01B800
071800
060800
000000
000000
000000
03FC00
0F0F00
180300
180000
180000
0C0000
0E0000
078000
01E000
007800
001E00
800700
800180
C000C0
C000C0
6000C0
3000C0
1FFF80
03FE00
ENDCHAR
STARTCHAR scircumflex
ENCODING 349
SWIDTH 514 0
DWIDTH 16 0
BBX 15 23 1 0
BITMAP
0180
0380
03C0
06E0
0C60
1830
0000
0000
0E00
3F80
60C0
C040
C040
4080
7800
1FF0
0078
000C
000C
C00E
E00C
7FFC
1FF0
ENDCHAR
STARTCHAR Scedilla
ENCODING 350
SWIDTH 627 0
DWIDTH 20 0
BBX 18 29 1 -10
BITMAP
03FC00
0F0F00
180300
180000
180000
0C0000
0E0000
078000
01E000
007800
001E00
800700
800180
C000C0
C000C0
6000C0
3000C0
1FFF80
07FE00
060000
060000
020000
03C000
007000
001800
040800
071800
03F800
00E000
ENDCHAR
STARTCHAR scedilla
ENCODING 351
SWIDTH 514 0
DWIDTH 16 0
BBX 15 25 1 -10
BITMAP
0E00
3F80
60C0
C040
C040
4080
7800
1FF0
0078
000C
000C
C00E
E00C
7FFC
0FF0
0800
0800
0800
0780
01E0
0060
1020
0C20
0FE0
0380
ENDCHAR
STARTCHAR Scaron
ENCODING 352
SWIDTH 627 0
DWIDTH 20 0
BBX 18 24 1 0
BITMAP
071800
01F000
00E000
000000
000000
03FC00
0F0F00
180300
180000
180000
0C0000
0E0000
078000
01E000
007800
001E00
800700
800180
C000C0
C000C0
6000C0
3000C0
1FFF80
03FE00
ENDCHAR
STARTCHAR scaron
ENCODING 353
SWIDTH 514 0
DWIDTH 16 0
BBX 15 19 1 0
BITMAP
1C70
07C0
0380
0000
0E00
3F80
60C0
C040
C040
4080
7800
1FF0
0078
000C
000C
C00E
E00C
7FFC
1FF0
ENDCHAR
STARTCHAR Tcommaaccent
ENCODING 354
SWIDTH 581 0
DWIDTH 19 0
BBX 21 28 0 -9
BITMAP
FFFFC0
03FFF8
003038
003000
003000
003000
003000
003000
003000
003000
001000
001800
001800
001800
001800
001800
001C00
000C00
000C00
000000
000000
000800
001C00
000C00
000C00
000C00
001800
001800
ENDCHAR
STARTCHAR tcommaaccent
ENCODING 355
SWIDTH 328 0
DWIDTH 11 0
BBX 10 30 0 -10
BITMAP
0C00
0C00
0C00
0C00
0C00
0C00
0C00
FFC0
7FC0
0C00
0C00
0C00
0C00
0C00
0C00
0C00
0C00
0400
0400
0400
0200
0000
0000
0400
0C00
0400
0400
0C00
0C00
0C00
ENDCHAR
STARTCHAR Tcaron
ENCODING 356
SWIDTH 581 0
DWIDTH 19 0
BBX 21 24 0 0
BITMAP
071C00
01F800
00E000
000000
000000
FFFFC0
03FFF8
003038
003000
003000
003000
003000
003000
003000
003000
001000
001800
001800
001800
001800
001800
001C00
000C00
000C00
ENDCHAR
STARTCHAR tcaron
ENCODING 357
SWIDTH 431 0
DWIDTH 14 0
BBX 13 23 0 0
BITMAP
0010
0018
0018
0C18
0C18
0C18
0C08
0C00
0C00
0C00
FFC0
7FC0
0C00
0C00
0C00
0C00
0C00
0C00
0C00
0C00
0400
0400
0600
ENDCHAR
STARTCHAR Utilde
ENCODING 360
SWIDTH 571 0
DWIDTH 18 0
BBX 17 22 1 0
BITMAP
0F0C00
19F800
10F000
100000
000000
600800
C00C00
800C00
800C00
800C00
800C00
800C00
C00400
C00600
C00600
400600
600700
600F00
301F00
387380
1FC180
0F8000
ENDCHAR
STARTCHAR utilde
ENCODING 361
SWIDTH 501 0
DWIDTH 16 0
BBX 16 21 0 0
BITMAP
0F0C
19F8
1070
1000
0000
0000
4000
4000
C018
C018
401C
401C
601C
601C
601C
303C
303C
1866
0FC6
0786
0003
ENDCHAR
STARTCHAR Umacron
ENCODING 362
SWIDTH 571 0
DWIDTH 18 0
BBX 17 22 1 0
BITMAP
07F000
0FF000
000000
000000
000000
600800
C00C00
800C00
800C00
800C00
800C00
800C00
C00400
C00600
C00600
400600
600700
600F00
301F00
387380
1FC180
0F8000
ENDCHAR
STARTCHAR umacron
ENCODING 363
SWIDTH 501 0
DWIDTH 16 0
BBX 16 19 0 0
BITMAP
0FE0
1FE0
0000
0000
4000
4000
C018
C018
401C
401C
601C
601C
601C
303C
303C
1866
0FC6
0786
0003
ENDCHAR
STARTCHAR Ubreve
ENCODING 364
SWIDTH 571 0
DWIDTH 18 0
BBX 17 21 1 0
BITMAP
042000
066000
03C000
000000
600800
C00C00
800C00
800C00
800C00
800C00
800C00
C00400
C00600
C00600
400600
600700
600F00
301F00
387380
1FC180
0F8000
ENDCHAR
STARTCHAR ubreve
ENCODING 365
SWIDTH 501 0
DWIDTH 16 0
BBX 16 19 0 0
BITMAP
0840
0CC0
0780
0000
4000
4000
C018
C018
401C
401C
601C
601C
601C
303C
303C
1866
0FC6
0786
0003
ENDCHAR
STARTCHAR Uring
ENCODING 366
SWIDTH 571 0
DWIDTH 18 0
BBX 17 23 1 0
BITMAP
03C000
046000
042000
044000
03C000
000000
600800
C00C00
800C00
800C00
800C00
800C00
800C00
C00400
C00600
C00600
400600
600700
600F00
301F00
387380
1FC180
0F8000
ENDCHAR
STARTCHAR uring
ENCODING 367
SWIDTH 501 0
DWIDTH 16 0
BBX 16 18 0 0
BITMAP
03C0
0440
0460
4440
4380
C018
C018
401C
401C
601C
601C
601C
303C
303C
1866
0FC6
0786
0003
ENDCHAR
STARTCHAR Uhungarumlaut
ENCODING 368
SWIDTH 571 0
DWIDTH 18 0
BBX 17 23 1 0
BITMAP
032000
066000
0CC000
088000
000000
000000
600800
C00C00
800C00
800C00
800C00
800C00
800C00
C00400
C00600
C00600
400600
600700
600F00
301F00
387380
1FC180
0F8000
ENDCHAR
STARTCHAR uhungarumlaut
ENCODING 369
SWIDTH 501 0
DWIDTH 16 0
BBX 16 22 0 0
BITMAP
0190
0330
0660
0440
0000
0000
0000
4000
4000
C018
C018
401C
401C
601C
601C
601C
303C
303C
1866
0FC6
0786
0003
ENDCHAR
STARTCHAR Uogonek
ENCODING 370
SWIDTH 571 0
DWIDTH 18 0
BBX 18 21 1 -5
BITMAP
600800
600C00
C00C00
C00C00
C00C00
C00C00
C00400
C00600
C00600
400600
400700
600700
600700
300F80
383980
1FE380
0FC780
000C00
000C00
000C00
0007C0
ENDCHAR
STARTCHAR uogonek
ENCODING 371
SWIDTH 501 0
DWIDTH 16 0
BBX 17 19 0 -4
BITMAP
400000
401800
C01800
C01800
401C00
401C00
601C00
601C00
601C00
303C00
307C00
1CE600
0FC600
030600
001F00
001000
003000
003800
001F80
ENDCHAR
STARTCHAR Wcircumflex
ENCODING 372
SWIDTH 703 0
DWIDTH 23 0
BBX 22 28 0 0
BITMAP
001800
003800
003C00
006E00
00C700
018300
000000
000000
000000
000000
000000
000000
400000
C00030
C00030
C00030
C00038
C00018
C04018
40600C
60600C
60600C
60700C
60F00C
31D818
3B8C38
1F07F0
0C03C0
ENDCHAR
STARTCHAR wcircumflex
ENCODING 373
SWIDTH 656 0
DWIDTH 21 0
BBX 20 23 0 0
BITMAP
003000
007800
007800
00DC00
018E00
030600
000000
000000
000000
400000
600000
600000
4000C0
C02060
C03020
C03030
C03030
603030
607030
207830
31DCF0
1F8FE0
0F0200
ENDCHAR
STARTCHAR Ycircumflex
ENCODING 374
SWIDTH 403 0
DWIDTH 13 0
BBX 11 29 1 -1
BITMAP
0600
0F00
0F00
1B80
31C0
60C0
0000
8000
8000
8020
C020
E060
7060
38E0
1EC0
07C0
03C0
0180
0180
0300
0300
0300
0200
0600
0600
0600
0600
0600
0400
ENDCHAR
STARTCHAR ycircumflex
ENCODING 375
SWIDTH 487 0
DWIDTH 16 0
BBX 14 39 1 -16
BITMAP
0300
0380
07C0
0FE0
1CE0
3860
0000
0000
0000
8010
8018
8018
8018
8018
C018
C008
C00C
601C
601C
303C
1DEC
0F84
0004
0004
0004
0004
000C
000C
000C
000C
000C
000C
C008
6018
7018
3830
1EF0
07E0
0080
ENDCHAR
STARTCHAR Ydieresis
ENCODING 376
SWIDTH 403 0
DWIDTH 13 0
BBX 11 26 1 -1
BITMAP
3180
39C0
7380
0000
8000
8000
8020
C020
E060
7060
38E0
1EC0
07C0
03C0
0180
0180
0300
0300
0300
0200
0600
0600
0600
0600
0600
0400
ENDCHAR
STARTCHAR Zacute
ENCODING 377
SWIDTH 571 0
DWIDTH 18 0
BBX 17 28 1 0
BITMAP
004000
006000
01C000
038000
030000
000000
000000
000000
7E0000
FFC000
C0E000
002000
003000
003000
003000
003000
006000
00FE00
1FFF00
3FE000
018000
018000
030000
060000
060000
0C0F80
0FFF00
07F800
ENDCHAR
STARTCHAR zacute
ENCODING 378
SWIDTH 459 0
DWIDTH 15 0
BBX 13 23 1 0
BITMAP
0100
0300
0600
0C00
1800
0000
0400
FF80
C180
80C0
00C0
00C0
0180
0180
3FE0
FF80
0E00
0C00
1800
3810
3878
3FF0
1F80
ENDCHAR
STARTCHAR Zdotaccent
ENCODING 379
SWIDTH 571 0
DWIDTH 18 0
BBX 17 25 1 0
BITMAP
020000
060000
030000
000000
000000
7E0000
FFC000
C0E000
002000
003000
003000
003000
003000
006000
00FE00
1FFF00
3FE000
018000
018000
030000
060000
060000
0C0F80
0FFF00
07F800
ENDCHAR
STARTCHAR zdotaccent
ENCODING 380
SWIDTH 459 0
DWIDTH 15 0
BBX 13 22 1 0
BITMAP
0200
0300
0300
0000
0000
0400
FF80
C180
80C0
00C0
00C0
0180
0180
3FE0
FF80
0E00
0C00
1800
3810
3878
3FF0
1F80
ENDCHAR
STARTCHAR Zcaron
ENCODING 381
SWIDTH 571 0
DWIDTH 18 0
BBX 17 25 1 0
BITMAP
1C6000
07C000
038000
000000
000000
7E0000
FFC000
C0E000
002000
003000
003000
003000
003000
006000
00FE00
1FFF00
3FE000
018000
018000
030000
060000
060000
0C0F80
0FFF00
07F800
ENDCHAR
STARTCHAR zcaron
ENCODING 382
SWIDTH 459 0
DWIDTH 15 0
BBX 13 21 1 0
BITMAP
7180
1F00
0E00
0000
0400
FF80
C180
80C0
00C0
00C0
0180
0180
3FE0
FF80
0E00
0C00
1800
3810
3878
3FF0
1F80
ENDCHAR
STARTCHAR florin
ENCODING 402
SWIDTH 376 0
DWIDTH 12 0
BBX 18 31 -3 -8
BITMAP
001000
007E00
00E700
01C380
018180
010040
030000
030000
030000
030000
030000
030000
030000
1FFC00
19B800
018000
018000
018000
018000
018000
010000
010000
030000
030000
030000
830000
C30000
630000
330000
1F0000
0F0000
ENDCHAR
STARTCHAR AEacute
ENCODING 508
SWIDTH 960 0
DWIDTH 31 0
BBX 29 28 1 0
BITMAP
00004000
0000C000
00018000
00030000
0FC60000
18700000
30300000
20180000
2009FFE0
600DFFF0
40058008
40078000
40078000
40078000
40038000
40038070
4003FFE0
FF07FC00
FFFF0000
C0030000
40030000
40030000
40030000
60030000
60030000
600380F8
6003FFF8
2002FFC0
ENDCHAR
STARTCHAR aeacute
ENCODING 509
SWIDTH 881 0
DWIDTH 28 0
BBX 27 24 1 -1
BITMAP
00010000
00030000
00060000
000C0000
00180000
00000000
00000000
0F007000
0FC1FC00
10E30E00
00660600
00340600
001C0600
1F9C0600
3FFC1C00
E03FF800
C01DE000
800C0000
800C0000
C0060000
F03F0000
3FFDF060
0FE0FFC0
00001E00
ENDCHAR
STARTCHAR Oslashacute
ENCODING 510
SWIDTH 609 0
DWIDTH 20 0
BBX 18 25 1 -3
BITMAP
006000
01C000
038000
030000
020000
001000
041000
3FB000
73F000
603800
C02E00
806600
804300
80C180
80C180
C08080
C180C0
618080
730180
3F0700
1FFE00
07F000
060000
0C0000
080000
ENDCHAR
STARTCHAR oslashacute
ENCODING 511
SWIDTH 487 0
DWIDTH 16 0
BBX 14 19 1 0
BITMAP
00C0
0380
0700
0600
0400
0000
0FD8
3FF0
7070
C078
C0C8
80CC
818C
830C
C718
C638
6CF0
3FE0
3F80
ENDCHAR
STARTCHAR Scommaaccent
ENCODING 536
SWIDTH 627 0
DWIDTH 20 0
BBX 18 29 1 -10
BITMAP
03FC00
0F0F00
180300
180000
180000
0C0000
0E0000
078000
01E000
007800
001E00
800700
800180
C000C0
C000C0
6000C0
3000C0
1FFF80
03FE00
000000
000000
000000
008000
018000
00C000
00C000
008000
018000
018000
ENDCHAR
STARTCHAR scommaaccent
ENCODING 537
SWIDTH 514 0
DWIDTH 16 0
BBX 15 25 1 -10
BITMAP
0E00
3F80
60C0
C040
C040
4080
7800
1FF0
0078
000C
000C
C00E
E00C
7FFC
1FF0
0000
0000
0000
0100
0300
0100
0100
0300
0300
0300
ENDCHAR
STARTCHAR circumflex
ENCODING 710
SWIDTH 375 0
DWIDTH 12 0
BBX 8 6 2 17
BITMAP
18
1C
3E
7F
E7
C3
ENDCHAR
STARTCHAR caron
ENCODING 711
SWIDTH 375 0
DWIDTH 12 0
BBX 8 3 2 16
BITMAP
E3
3E
1C
ENDCHAR
STARTCHAR breve
ENCODING 728
SWIDTH 224 0
DWIDTH 7 0
BBX 6 3 1 13
BITMAP
8C
88
70
ENDCHAR
STARTCHAR dotaccent
ENCODING 729
SWIDTH 152 0
DWIDTH 5 0
BBX 2 3 2 15
BITMAP
80
C0
C0
ENDCHAR
STARTCHAR ring
ENCODING 730
SWIDTH 333 0
DWIDTH 11 0
BBX 6 5 3 13
BITMAP
78
8C
84
8C
78
ENDCHAR
STARTCHAR ogonek
ENCODING 731
SWIDTH 254 0
DWIDTH 8 0
BBX 6 6 1 -5
BITMAP
70
E0
C0
C0
F0
3C
ENDCHAR
STARTCHAR tilde
ENCODING 732
SWIDTH 402 0
DWIDTH 13 0
BBX 11 4 1 13
BITMAP
7860
CFC0
8780
8000
ENDCHAR
STARTCHAR hungarumlaut
ENCODING 733
SWIDTH 264 0
DWIDTH 8 0
BBX 7 4 1 14
BITMAP
34
66
CC
98
ENDCHAR
STARTCHAR Wgrave
ENCODING 7808
SWIDTH 703 0
DWIDTH 23 0
BBX 22 23 0 0
BITMAP
002000
007000
001800
000C00
000000
000000
000000
400000
C00030
C00030
C00030
C00038
C00018
C04018
40600C
60600C
60600C
60700C
60F00C
31D818
3B8C38
1F07F0
0C03C0
ENDCHAR
STARTCHAR wgrave
ENCODING 7809
SWIDTH 656 0
DWIDTH 21 0
BBX 20 18 0 0
BITMAP
004000
007000
003800
001800
400000
600000
600000
4000C0
C02060
C03020
C03030
C03030
603030
607030
207830
31DCF0
1F8FE0
0F0200
ENDCHAR
STARTCHAR Wacute
ENCODING 7810
SWIDTH 703 0
DWIDTH 23 0
BBX 22 23 0 0
BITMAP
000800
001800
003000
006000
00C000
000000
000000
400000
C00030
C00030
C00030
C00038
C00018
C04018
40600C
60600C
60600C
60700C
60F00C
31D818
3B8C38
1F07F0
0C03C0
ENDCHAR
STARTCHAR wacute
ENCODING 7811
SWIDTH 656 0
DWIDTH 21 0
BBX 20 21 0 0
BITMAP
000800
001800
003000
006000
00C000
000000
000000
400000
600000
600000
4000C0
C02060
C03020
C03030
C03030
603030
607030
207830
31DCF0
1F8FE0
0F0200
ENDCHAR
STARTCHAR Wdieresis
ENCODING 7812
SWIDTH 703 0
DWIDTH 23 0
BBX 22 22 0 0
BITMAP
00C600
01CE00
01CE00
000000
000000
000000
400000
C00030
C00030
C00030
C00038
C00018
C04018
40600C
60600C
60600C
60700C
60F00C
31D818
3B8C38
1F07F0
0C03C0
ENDCHAR
STARTCHAR wdieresis
ENCODING 7813
SWIDTH 656 0
DWIDTH 21 0
BBX 20 17 0 0
BITMAP
018C00
03DE00
018C00
400000
600000
600000
4000C0
C02060
C03020
C03030
C03030
603030
607030
207830
31DCF0
1F8FE0
0F0200
ENDCHAR
STARTCHAR Ygrave
ENCODING 7922
SWIDTH 403 0
DWIDTH 13 0
BBX 11 27 1 -1
BITMAP
1800
0C00
0600
0300
0000
8000
8000
8020
C020
E060
7060
38E0
1EC0
07C0
03C0
0180
0180
0300
0300
0300
0200
0600
0600
0600
0600
0600
0400
ENDCHAR
STARTCHAR ygrave
ENCODING 7923
SWIDTH 487 0
DWIDTH 16 0
BBX 14 34 1 -16
BITMAP
0400
0700
0380
0080
8010
8018
8018
8018
8018
C018
C008
C00C
601C
601C
303C
1DEC
0F84
0004
0004
0004
0004
000C
000C
000C
000C
000C
000C
C008
6018
7018
3830
1EF0
07E0
0080
ENDCHAR
STARTCHAR endash
ENCODING 8211
SWIDTH 287 0
DWIDTH 9 0
BBX 9 2 0 8
BITMAP
7F00
FF80
ENDCHAR
STARTCHAR emdash
ENCODING 8212
SWIDTH 512 0
DWIDTH 16 0
BBX 15 2 0 8
BITMAP
1FFE
FFFE
ENDCHAR
STARTCHAR quoteleft
ENCODING 8216
SWIDTH 102 0
DWIDTH 3 0
BBX 2 7 1 16
BITMAP
80
80
80
C0
C0
C0
C0
ENDCHAR
STARTCHAR quoteright
ENCODING 8217
SWIDTH 102 0
DWIDTH 3 0
BBX 2 7 1 16
BITMAP
80
80
80
C0
C0
C0
C0
ENDCHAR
STARTCHAR quotesinglbase
ENCODING 8218
SWIDTH 102 0
DWIDTH 3 0
BBX 2 8 1 -1
BITMAP
80
80
C0
C0
C0
C0
C0
40
ENDCHAR
STARTCHAR quotedblleft
ENCODING 8220
SWIDTH 234 0
DWIDTH 8 0
BBX 7 10 0 16
BITMAP
08
84
C4
C4
44
64
66
66
66
36
ENDCHAR
STARTCHAR quotedblright
ENCODING 8221
SWIDTH 234 0
DWIDTH 8 0
BBX 7 10 0 16
BITMAP
08
84
C4
C4
44
64
66
66
66
36
ENDCHAR
STARTCHAR quotedblbase
ENCODING 8222
SWIDTH 341 0
DWIDTH 11 0
BBX 7 10 2 -4
BITMAP
04
C4
C4
44
44
66
66
66
26
06
ENDCHAR
STARTCHAR dagger
ENCODING 8224
SWIDTH 375 0
DWIDTH 12 0
BBX 10 21 1 0
BITMAP
1000
1000
1800
1800
0800
0800
0C00
3F80
FFC0
C400
0400
0400
0400
0400
0400
0600
0600
0600
0600
0600
0600
ENDCHAR
STARTCHAR daggerdbl
ENCODING 8225
SWIDTH 375 0
DWIDTH 12 0
BBX 16 24 -2 0
BITMAP
0300
0300
0300
0300
0100
0180
0180
0180
0180
FFFE
7F87
0080
0080
7FFC
7FFE
0080
0080
0080
0080
0080
00C0
00C0
00C0
00C0
ENDCHAR
STARTCHAR bullet
ENCODING 8226
SWIDTH 341 0
DWIDTH 11 0
BBX 6 6 3 5
BITMAP
38
7C
FC
FC
78
30
ENDCHAR
STARTCHAR ellipsis
ENCODING 8230
SWIDTH 612 0
DWIDTH 20 0
BBX 18 6 1 0
BITMAP
30C180
71E380
79E3C0
F9E7C0
71E380
60C300
ENDCHAR
STARTCHAR guilsinglleft
ENCODING 8249
SWIDTH 487 0
DWIDTH 16 0
BBX 15 13 0 0
BITMAP
000E
001C
0070
00E0
0380
0700
1C00
3800
7000
FC00
7FE0
07F8
001C
ENDCHAR
STARTCHAR guilsinglright
ENCODING 8250
SWIDTH 403 0
DWIDTH 13 0
BBX 12 15 1 0
BITMAP
C000
E000
7800
1F00
07F0
0070
0070
00E0
01C0
0300
0E00
1C00
7000
E000
C000
ENDCHAR
STARTCHAR fraction
ENCODING 8260
SWIDTH 309 0
DWIDTH 10 0
BBX 9 24 0 0
BITMAP
0080
0080
0180
0180
0180
0100
0300
0300
0300
0600
0600
0600
0C00
0C00
1C00
1800
1800
3000
3000
7000
6000
6000
C000
C000
ENDCHAR
STARTCHAR Euro
ENCODING 8364
SWIDTH 741 0
DWIDTH 24 0
BBX 23 22 0 0
BITMAP
0000F0
0003D8
000708
000C00
001800
007F00
7FFFC0
FFC000
018000
010000
010000
03BF80
0FFC00
FF0000
020000
020000
020000
030000
030000
01807E
00FFF8
007F80
ENDCHAR
STARTCHAR trademark
ENCODING 8482
SWIDTH 1116 0
DWIDTH 36 0
BBX 35 20 0 0
BITMAP
FC00100080
FFFFDC00C0
00FFFC01C0
00301E01C0
0030060380
0030070380
003007CF80
003004FF80
0030046080
0030040080
00300C00C0
00100C00C0
00180C00C0
00180C00C0
00180C00C0
00180C00C0
00180C00E0
001C0C00E0
000C040060
000C000060
ENDCHAR
STARTCHAR minus
ENCODING 8722
SWIDTH 287 0
DWIDTH 9 0
BBX 9 2 0 8
BITMAP
7F00
FF80
ENDCHAR
STARTCHAR commaaccent
ENCODING 63171
SWIDTH 375 0
DWIDTH 12 0
BBX 2 7 4 -10
BITMAP
80
C0
C0
C0
C0
C0
80
ENDCHAR
STARTCHAR fi
ENCODING 64257
SWIDTH 551 0
DWIDTH 18 0
BBX 15 24 0 -1
BITMAP
0080
03F0
0738
0C1C
084C
0862
1800
1800
1800
1830
1810
1810
1810
FFF0
CFF8
0C18
0618
0618
0718
0318
039C
01DC
00CC
0008
ENDCHAR
STARTCHAR fl
ENCODING 64258
SWIDTH 723 0
DWIDTH 23 0
BBX 15 23 0 0
BITMAP
0080
03F0
0738
0C1C
080C
0832
1830
1830
1830
1830
1830
1830
1830
FFF0
CFF0
0C30
0630
0630
0730
0330
03B0
01F0
00F0
ENDCHAR
STARTCHAR .notdef
ENCODING -1
SWIDTH 375 0
DWIDTH 12 0
BBX 1 1 0 0
BITMAP
00
ENDCHAR
STARTCHAR .null
ENCODING -1
SWIDTH 0 0
DWIDTH 0 0
BBX 1 1 0 0
BITMAP
00
ENDCHAR
STARTCHAR nonmarkingreturn
ENCODING -1
SWIDTH 375 0
DWIDTH 12 0
BBX 1 1 0 0
BITMAP
00
ENDCHAR
ENDFONT
